<?xml version="1.0" encoding="UTF-8"?>
<svg id="Capa_1" data-name="Capa 1" xmlns="http://www.w3.org/2000/svg" viewBox="0 0 1244.96 1246.23">
  <defs>
    <style>
      .cls-1 {
        fill: #fff;
      }
    </style>
  </defs>
  <path d="M916.69,541.48c-7.44-7.14-14.9-14.27-22.36-21.39-5.91-5.65-11.82-11.3-17.73-16.96-16.85-16.14-33.68-32.3-50.54-48.48-4.18-4.02-8.47-7.12-13.09-9.47-3.53-1.79-7.33-2.67-11.1-2.67-6.42,0-12.76,2.52-17.47,7.32-1.24,1.26-2.31,2.63-3.23,4.08-4.45-3.31-9.33-6.23-14.62-8.73-7.93-3.74-15.14-5.55-22.06-5.55-5.99,0-11.59,1.37-16.62,4.06-.69.37-1.36.77-2,1.2-5.27,3.51-10.26,8.92-16.18,17.52-2.42,3.53-4.88,7.29-7.34,11.24-10.59-6.57-21.17-9.1-29.84-9.84-2.64-.22-5.33-.34-8-.34-11.29,0-22.84,2.02-34.53,6.03l.71-54.62c.18-13.53-10.65-24.63-24.17-24.81,0,0-267.27-3.48-267.37-3.48-6.38,0-12.52,2.49-17.09,6.95-4.65,4.53-7.31,10.73-7.4,17.23l-1.13,86.94c-.08,6.5,2.41,12.76,6.95,17.41,4.53,4.65,10.73,7.31,17.23,7.4l55.27.72-2.65,203.65c-.08,6.5,2.41,12.76,6.95,17.41,4.53,4.65,10.73,7.31,17.23,7.4l56.16.73c-6.44,15.51-9.81,30.62-10.04,44.99-.34,20.93,8.84,38.82,25.95,50.45,11.79,7.92,27.4,11.77,47.72,11.77h0c2.86,0,5.86-.08,8.92-.23.26-.01.52-.03.78-.05,26.43-2.18,53.12-10.12,79.34-23.61,22.46-11.56,42.17-25.06,58.72-40.2,8.44,6.04,18.29,9.3,28.41,9.3h0c13.02,0,25.41-5.35,34.9-15.07,6.96-7.13,13.92-14.42,20.64-21.46,2.73-2.86,5.45-5.71,8.18-8.56l104.49-109.09c8.15-8.51,16.31-17.02,24.43-25.55,1.15-1.21,2.3-2.41,3.46-3.61,4.43-4.61,9.01-9.37,13.47-14.56,16.44-19.13,14.97-47.89-3.34-65.47Z"/>
  <g>
    <path class="cls-1" d="M687.09,687.76c-7.75-10.08-17.62-18.34-29.62-24.79-12-6.44-24.17-12-36.51-16.66-13.03-5.07-23.83-10.25-32.4-15.53-8.57-5.28-12.58-11.96-12.03-20.06,1.78-10.56,7.95-22.39,18.51-35.48,10.56-13.09,22.63-25.3,36.2-36.62,13.58-11.31,25.82-19.61,36.72-24.89,10.9-5.28,17.59-5.38,20.06-.31,2.6,8.09,2.67,17.52.21,28.29-2.14,9.35-4.95,18.95-8.33,28.76-9.91,10.34-19.82,20.69-29.72,31.03-8.82,9.21-17.65,18.42-26.47,27.64,1.94.83,3.89,1.67,5.84,2.49,7.44-7.75,14.88-15.49,22.31-23.24,7.8-8.13,15.58-16.28,23.37-24.42-3.53,10.8-6.07,20.89-7.57,30.25-.55,8.23,1.44,15.29,5.97,21.19.05.06.1.12.15.18-.83.78-1.67,1.55-2.54,2.29-4.23,3.64-8.72,5.74-13.48,5.99,34.02,15.49,43.25,28.24,43.25,28.24,1.74-.34,3.43-.04,5.09.97,4.57,2.79,9.24,5.42,13.82,8.2,4.65,2.82,9.24,5.75,13.95,8.7-5.8,5.26-11.58,10.5-17.34,15.72.02,1.6.03,3.19.03,4.78,2.92-1.92,5.7-4.06,8.29-6.51,1.99-1.88,4.33-3.47,6.69-4.87,4.11-2.44,8.54-3.34,13.23-1.7,3.18,1.11,5.84,3.06,8.23,5.38.78.76,1.3.61,1.98-.12-3.78-3.55-7.5-7.05-11.21-10.53.16-.22.2-.3.26-.36,9.46-8.58,18.93-17.15,28.37-25.75.68-.62,1.14-.54,1.85-.12,2.81,1.71,5.66,3.36,8.46,5.01.83-.63.58-1.14.1-1.75-1.9-2.41-3.78-4.84-5.72-7.34,8.95-8.86,17.83-17.64,26.7-26.41,3.43,2.14,6.72,4.21,10.03,6.23.54.33,1.22.42,1.83.62-.3-.6-.49-1.3-.92-1.79-2.54-2.87-5.13-5.69-7.74-8.57,8.45-9.82,16.83-19.55,25.27-29.35,4.09,2.59,8.07,5.12,12.13,7.7.3-.4.55-.74.83-1.11-3.29-3.63-6.51-7.2-9.73-10.76,3.66-5.41,7.24-10.71,10.82-16.02-.12-.14-.24-.29-.37-.43-.42.25-.88.45-1.24.77-4.28,3.86-8.56,7.71-12.78,11.63-.8.74-1.29.7-2.13.1-8.91-6.42-17.86-12.8-26.79-19.19-.35-.25-.67-.53-1.05-.82,6.05-8.22,12.05-16.37,18.07-24.56-.51-.41-.88-.71-1.26-1.03-.23.21-.4.35-.56.51-6.79,7.1-13.59,14.19-20.38,21.3-.55.58-.98.98-1.92.51-9.42-4.71-18.86-9.36-28.29-14.04-.26-.13-.48-.33-.75-.52,10.68-13.35,21.3-26.61,31.92-39.88-.43.05-.71.23-.96.46-5.68,5.17-11.49,10.2-16.98,15.56-5.49,5.36-10.65,11.06-15.97,16.61-1.75,1.82-3.66,3.4-6.25,3.9-2.26.43-4.29-.34-6.39-1-1.09-.34-2.18-.66-3.27-.99-.58,1.06-1.18,2.11-1.8,3.15,2.66,1.23,5.33,2.46,8.05,3.71-.28.35-.46.6-.66.82-3.82,4.14-7.56,8.34-11.48,12.38-2.73,2.82-5.54,5.59-8.58,8.06-.67.54-1.36,1.05-2.05,1.52-1.4,5.51-3.03,10.97-4.66,16.42,3.57-2.13,7.41-2.44,11.32-.57,5.74,2.75,11.36,5.77,16.99,8.74,1.8.95,3.49,2.12,5.33,3.25-3.23,2.96-6.33,5.84-9.49,8.66-4.42,3.96-8.85,7.91-13.32,11.81-2.27,1.97-4.89,2.38-7.59,1.04-3.97-1.95-7.93-3.93-11.89-5.9.2,2.74.6,5.42,1.31,7.93,2.97,1.52,5.93,3.03,8.89,4.55.16.08.29.19.58.39-5.74,5.2-11.35,10.31-16.98,15.39-2.72,2.45-5.46,4.88-8.22,7.29-1.84,1.61-3.85,2.07-6.17.97-9.82-4.68-19.66-9.33-29.48-13.99-.08-.04-.13-.12-.5-.45.28-.14.57-.23.79-.41,2.66-2.11,5.31-4.23,7.97-6.34,3.61,3.62,7.61,6.25,12,7.86,5.97,2.2,10.73,1.72,14.3-1.44-4.25-4.8-4.46-13.92-.62-27.36,3.84-13.44,10.01-28.52,18.51-45.25,8.5-16.73,17.69-32.36,27.56-46.9,9.87-14.53,18.85-25.37,26.95-32.5,3.56-3.7,2.95-8.23-1.85-13.58-4.8-5.35-10.83-9.74-18.1-13.16-7.27-3.43-12.82-4.12-16.66-2.06-2.47,1.65-5.66,5.32-9.56,11.01-3.91,5.69-7.89,12-11.93,18.92-4.05,6.93-7.51,13.13-10.39,18.62-9.46-15.77-21.84-24.31-37.13-25.61-15.29-1.3-31.41,2.47-48.34,11.31-16.94,8.85-32.6,20.54-47,35.07-14.4,14.54-25.44,29.69-33.12,45.46-7.68,15.77-9.87,29.97-6.58,42.58,3.56,10.42,11.01,18.79,22.32,25.1,11.31,6.31,23.83,11.86,37.54,16.66.02,0,.05.02.07.03-1.35,7.11.57,14.66,5.89,20.4,3.03,3.27,6.39,6.23,9.62,9.32,12.05,11.56,24.1,23.12,36.17,34.67-2.57,4.36-5.93,8.8-10.19,13.34-10.29,10.97-22.94,20.95-37.95,29.93-15.02,8.98-29.86,15.26-44.54,18.82-16.04,3.43-26.84,2.13-32.4-3.91-5.55-6.03-7.44-14.43-5.66-25.2,1.78-10.76,5.66-21.5,11.62-32.19,5.97-10.7,12.58-18.99,19.85-24.89,1.51-1.51,1.71-3.12.62-4.83-1.1-1.71-2.78-2.91-5.04-3.6-2.26-.68-4.36-.27-6.27,1.23-5.4,5.21-10.51,10.93-15.39,17.05l2.79-214.13,80.62,1.05,1.13-86.94-267.05-3.48-1.13,86.94,79.76,1.04-2.97,228.14,96.76,1.26c-5.78,8.7-11.16,18.1-16.08,28.3-6.72,14.54-10.18,28.22-10.39,41.04-.21,12.82,4.83,22.73,15.12,29.73,8.77,5.89,22.69,8.36,41.76,7.41,23.31-1.92,46.69-8.92,70.15-20.98,23.45-12.07,43.23-26.12,59.35-42.17,16.11-16.04,24.86-31.06,26.23-45.05.68-15.91-2.85-28.9-10.59-38.98ZM797.36,579.8c10.41,6.47,20.77,12.91,31.25,19.42-9.08,9.41-18.06,18.7-27.1,28.06-9.54-6.8-19.02-13.55-28.57-20.36,8.15-9.06,16.24-18.03,24.42-27.12ZM736.83,588.52c-.07-.03-.11-.12-.25-.28,2.25-2.38,4.49-4.79,6.78-7.15,5.13-5.29,10.27-10.56,15.43-15.82,2.35-2.4,5.03-2.92,8-1.43,8.21,4.1,16.4,8.27,24.59,12.42.19.1.37.23.67.42-1.96,2.03-3.85,4.03-5.79,6-5.7,5.79-11.41,11.57-17.13,17.34-1.76,1.78-4.24,2.32-6.51,1.21-8.62-4.2-17.2-8.47-25.79-12.71ZM744.68,633.38c6.65-5.96,13.29-11.94,19.97-17.87,2.3-2.04,5.07-2.29,7.64-.7,8.28,5.11,16.53,10.27,24.79,15.42.18.11.34.27.63.5-8.93,8.89-17.8,17.74-26.69,26.59-9.88-7.21-19.46-14.2-29.2-21.3.99-.92,1.91-1.79,2.85-2.64ZM737.15,641.32c9.97,6.26,19.87,12.46,29.96,18.79-9.81,8.9-19.51,17.69-29.27,26.54-10.1-7.08-20.06-14.06-30.19-21.16,9.92-8.13,19.7-16.15,29.5-24.17ZM608.76,684.08c-2.4-2.29-4.79-4.56-6.22-7.63-1.54-3.29-2.04-6.68-1.56-9.99,12.72,4.73,24.01,10.07,33.86,16.04,11.31,6.86,17.31,16.32,18,28.39-.17,4.06-1.22,8.22-3.06,12.47-13.67-13.1-27.33-26.21-41.02-39.29Z"/>
    <path class="cls-1" d="M899.73,559.16c-13.34-12.8-26.73-25.55-40.08-38.34-16.86-16.16-33.71-32.33-50.56-48.5-2.21-2.12-4.59-3.96-7.24-5.31.94,1.77,1.63,3.67,1.98,5.72v1.61c-.06.37-.14.73-.23,1.08,7.56,7.1,14.97,14.37,22.54,21.46,1.41,1.32,1.51,2.31.93,4.07-3.9,11.77-3.58,23.26,2.79,34.22,2.43,4.18,5.81,7.54,9.18,10.95,5.4,5.46,10.78,10.94,15.97,16.59,2.73,2.96,4.56,6.52,4.69,10.7.1,3.18-.83,6.16-1.83,9.13-2.27,6.71-4.72,13.38-6.64,20.19-2.06,7.29-2.73,14.77-.7,22.23.72,2.65,1.89,5.17,2.93,7.96-2.71,2.84-5.64,5.91-8.57,8.97-12.07,12.61-24.15,25.22-36.22,37.83-9.79,10.22-19.6,20.43-29.39,30.65-12.75,13.32-25.49,26.66-38.24,39.98-5.87,6.13-11.71,12.28-17.63,18.35-3.11,3.18-6.82,5.34-11.38,5.65-5.52.38-10.33-1.44-14.29-5.2-.64-.61-1.28-1.22-1.92-1.83-1.33,1.47-2.67,2.92-4.06,4.34.43.41.86.82,1.28,1.23,10.31,9.93,24.81,9.95,34.79-.26,9.64-9.87,19.12-19.89,28.67-29.85,10.91-11.38,21.81-22.76,32.71-34.15,11.43-11.93,22.86-23.87,34.28-35.8,9.36-9.77,18.72-19.54,28.08-29.31,11.27-11.77,22.56-23.53,33.8-35.33,5.42-5.69,10.96-11.28,16.08-17.23,7.95-9.26,7.07-23.39-1.73-31.83Z"/>
  </g>
</svg>