<?xml version="1.0" encoding="UTF-8"?>
<svg id="Capa_1" data-name="Capa 1" xmlns="http://www.w3.org/2000/svg" viewBox="0 0 1244.96 1246.23">
  <defs>
    <style>
      .cls-1 {
        fill: #020304;
      }

      .cls-2 {
        fill: #fff;
      }
    </style>
  </defs>
  <g>
    <path class="cls-2" d="M380.12,727.76c-3.1,2.56-6.21,6.02-9.31,10.4-3.1,4.38-5.71,9.03-7.8,13.96-2.1,4.93-3.52,9.81-4.24,14.64-.73,4.84-.41,9.03.96,12.59,1.37,3.56,4.01,6.12,7.94,7.66,3.92,1.55,9.62,1.51,17.11-.14,7.3-1.82,14.87-4.74,22.72-8.76,7.84-4.01,15.05-8.62,21.62-13.82,6.57-5.2,11.95-10.63,16.15-16.29,4.2-5.65,6.3-10.95,6.3-15.87,0-5.29-1.78-9.76-5.34-13.41-3.56-3.65-8.03-6.89-13.41-9.72-5.38-2.83-11.32-5.38-17.79-7.66-6.48-2.28-12.68-4.74-18.61-7.39-5.93-2.64-11.18-5.7-15.74-9.17-4.56-3.46-7.57-7.75-9.03-12.86-2.01-6.93-1.23-14.82,2.33-23.68,3.56-8.85,8.8-17.56,15.74-26.14,6.93-8.57,15.05-16.38,24.36-23.4,9.31-7.02,18.65-12.09,28.05-15.19,9.4-3.1,18.24-3.74,26.55-1.92,8.3,1.83,15.1,7.3,20.39,16.42,1.27-2.74,2.96-5.84,5.06-9.31,2.1-3.46,4.15-6.84,6.16-10.13,2.01-3.28,3.97-6.2,5.88-8.76,1.92-2.55,3.42-4.2,4.52-4.93,1.64-1.09,4.29-1.05,7.94.14,3.65,1.19,7.07,2.92,10.26,5.2,3.19,2.28,5.65,4.79,7.39,7.53,1.73,2.74,1.51,4.93-.68,6.57-3.47,3.1-7.39,7.53-11.77,13.27-4.38,5.75-8.72,12.14-13,19.16-4.29,7.03-8.35,14.33-12.18,21.9-3.83,7.57-6.98,14.69-9.44,21.35-2.46,6.66-4.02,12.5-4.65,17.52-.64,5.02.04,8.53,2.05,10.54-1.83,1.64-4.2,2.24-7.12,1.78-2.92-.45-5.75-1.73-8.48-3.83-2.74-2.1-5.06-4.83-6.98-8.21-1.92-3.37-2.6-7.16-2.05-11.36.55-5.11,1.87-10.76,3.97-16.97,2.1-6.2,4.15-12.45,6.16-18.75,2.01-6.3,3.51-12.32,4.52-18.06,1-5.75.68-10.81-.96-15.19-.92-2.37-3.33-3.05-7.25-2.05-3.93,1-8.62,3.19-14.1,6.57-5.47,3.38-11.27,7.62-17.38,12.73-6.12,5.11-11.82,10.54-17.11,16.29-5.29,5.75-9.81,11.54-13.55,17.38-3.74,5.84-5.88,11.04-6.43,15.6-.55,4.56,1.14,8.35,5.06,11.36,3.92,3.01,9.03,5.93,15.33,8.76,6.3,2.83,13.18,5.75,20.66,8.76,7.48,3.01,14.37,6.66,20.66,10.95,6.3,4.29,11.45,9.58,15.46,15.87,4.01,6.3,5.75,14.1,5.2,23.4-.18,4.56-1.87,9.49-5.06,14.78-3.19,5.29-7.44,10.58-12.73,15.87-5.29,5.29-11.41,10.4-18.34,15.33-6.94,4.93-14.33,9.35-22.17,13.27-7.85,3.92-15.87,7.16-24.09,9.72-8.21,2.55-16.15,4.11-23.81,4.65-6.57.36-12.14.09-16.7-.82-4.56-.92-8.39-2.28-11.5-4.11-3.65-2.37-6.3-5.29-7.94-8.76-1.64-3.47-2.46-7.34-2.46-11.63,0-4.29.64-8.8,1.92-13.55,1.27-4.74,3.01-9.49,5.2-14.23,3.65-7.84,7.98-15.33,13-22.44,5.02-7.12,10.08-13.14,15.19-18.06.91-.73,2.01-1.05,3.28-.96,1.27.09,2.37.46,3.28,1.09.91.64,1.51,1.42,1.78,2.33.27.92-.05,1.64-.96,2.19ZM585.94,611.71c18.98-.55,34.49,1.64,46.53,6.57,2.74,1.46,4.97,3.1,6.71,4.93,1.73,1.83,3.15,4.02,4.24,6.57,2.01,4.56,2.74,9.49,2.19,14.78-.92,4.75-2.46,7.76-4.65,9.03,1.09-8.94-5.38-15.33-19.43-19.16-14.42-4.2-31.48-5.2-51.18-3.01-5.11,7.66-9.9,15.7-14.37,24.09-4.47,8.39-8.81,17.34-13,26.82-8.39,19.34-14.14,35.95-17.24,49.81-3.1,14.42-2.83,23.54.82,27.37,3.28,2.19,8.21.09,14.78-6.3,6.38-6.57,12.77-15.51,19.16-26.82,3.1-5.84,5.65-11.54,7.66-17.11,2.01-5.56,3.46-11.08,4.38-16.56,1.64-10.58-1.19-18.43-8.48-23.54-2.74-1.64-3.83-4.38-3.28-8.21.91-3.65,2.83-7.12,5.75-10.4,1.46-1.64,2.87-3.1,4.24-4.38,1.37-1.27,2.96-2.19,4.79-2.74,2.92-1.27,5.47-.55,7.66,2.19.36.37.73.92,1.09,1.64.18.92.59,1.78,1.23,2.6.64.82,1.41,1.78,2.33,2.87.91,1.28,2.37,2.56,4.38,3.83,2.01,1.28,4.56,2.83,7.66,4.65,10.76,5.47,19.43,11.59,26,18.34,6.02,6.94,7.84,17.15,5.47,30.65-.55,3.47-1.55,7.53-3.01,12.18-1.46,4.65-3.19,9.99-5.2,16.01-2.01,5.66-3.88,11.32-5.61,16.97-1.74,5.66-3.42,11.41-5.06,17.24-1.64,5.84-2.83,11.18-3.56,16.01-.73,4.84-1.09,9.35-1.09,13.55.55,8.03,4.11,12.41,10.67,13.14-2.56,4.01-6.84,5.2-12.86,3.56-6.02-1.28-11.68-5.02-16.97-11.22-4.75-6.75-6.3-15.23-4.65-25.45,1.46-6.93,3.28-13.82,5.47-20.66,2.19-6.84,4.83-14,7.94-21.49,3.28-9.31,6.02-17.52,8.21-24.63,3.1-10.22,3.56-18.43,1.37-24.63-2.01-6.38-7.39-11.22-16.15-14.51,2.37,10.04,1,22.08-4.11,36.13-5.11,14.6-12.23,28.65-21.35,42.15-9.13,13.14-18.16,22.44-27.1,27.92-5.29,2.19-11.59,2.1-18.89-.27-7.48-2.74-13.23-6.75-17.24-12.04-5.65-10.95-4.65-29.29,3.01-55.01,3.65-13.14,7.94-26,12.86-38.59,4.93-12.59,10.58-25.09,16.97-37.5-9.31,2.92-17.7,7.12-25.18,12.59-1.46.92-3.19.64-5.2-.82-.73-.91-1.51-1.96-2.33-3.15-.82-1.18-1.6-2.51-2.33-3.97-.91-1.27-1.51-2.55-1.78-3.83-.27-1.27-.59-2.64-.96-4.11-.55-2.37-.09-4.01,1.37-4.93,13.86-6.38,30.29-11.4,49.27-15.05,3.1-5.29,6.16-9.85,9.17-13.69,3.01-3.83,5.79-6.93,8.35-9.31,2.92-2.37,6.57-2.55,10.95-.55,4.2,2.01,7.57,4.93,10.13,8.76,2.55,3.83,2.92,6.94,1.09,9.31-.37.37-.64.64-.82.82-.18.18-.46.37-.82.55h0ZM725.53,699.29c.73-.73,1.68-1,2.87-.82,1.18.18,2.33.64,3.42,1.37,1.09.73,1.92,1.69,2.46,2.87.55,1.19.45,2.42-.27,3.7-2.37,7.12-5.71,14.19-9.99,21.21-4.29,7.03-9.17,13.64-14.64,19.84-5.47,6.21-11.22,11.86-17.24,16.97-6.02,5.11-11.95,9.31-17.79,12.59-2.74,1.46-5.66,2.01-8.76,1.64-3.1-.36-6.21-1.23-9.31-2.6-3.1-1.37-5.93-2.96-8.48-4.79-2.55-1.82-4.65-3.56-6.3-5.2-3.46-3.65-5.38-8.53-5.75-14.64-.36-6.11.32-12.73,2.05-19.84,1.74-7.12,4.34-14.51,7.8-22.17,3.46-7.66,7.34-14.87,11.63-21.62,4.29-6.75,8.8-12.68,13.55-17.79,4.74-5.11,9.21-8.85,13.41-11.22,2.55-1.27,4.93-1.96,7.12-2.05,2.19-.09,4.47.27,6.84,1.09,2.37.82,4.79,2.01,7.25,3.56,2.46,1.55,5.24,3.24,8.35,5.06,4.38,2.74,6.38,6.21,6.02,10.4,0,2.01-.78,5.57-2.33,10.67-1.55,5.11-3.74,10.45-6.57,16.01-2.83,5.57-6.3,10.77-10.4,15.6-4.11,4.84-8.72,8.07-13.82,9.72-3.65.92-6.84,1.19-9.58.82-2.74-.36-5.75-1.27-9.03-2.74-.92,1.83-1.92,4.52-3.01,8.07-1.09,3.56-1.92,7.16-2.46,10.81-.55,3.65-.73,6.89-.55,9.72.18,2.83,1.27,4.43,3.28,4.79,2.92.55,7.07-1,12.45-4.65,5.38-3.65,10.99-8.44,16.83-14.37,5.84-5.93,11.59-12.63,17.24-20.12,5.65-7.48,10.22-14.78,13.69-21.9ZM698.16,679.04c-1.83,1.28-4.15,3.7-6.98,7.25-2.83,3.56-5.57,7.35-8.21,11.36-2.65,4.02-4.93,7.76-6.84,11.22-1.92,3.47-2.87,5.66-2.87,6.57,3.28.55,6.34-.45,9.17-3.01,2.83-2.55,5.38-5.79,7.66-9.72,2.28-3.92,4.11-8.07,5.47-12.45,1.37-4.38,2.23-8.12,2.6-11.22ZM855.54,645.92c-6.21,10.4-11.91,21.26-17.11,32.57-5.2,11.32-9.9,23.09-14.1,35.31-8.39,24.63-13.14,46.26-14.23,64.87-1.09,18.43,3.28,28.37,13.14,29.83-2.92,2.55-6.94,3.46-12.04,2.74-2.56-.37-5.11-1.23-7.66-2.6-2.56-1.37-5.02-3.33-7.39-5.88-4.93-4.93-8.21-12.22-9.85-21.9-.73-6.2-.27-14.23,1.37-24.09-8.76,15.33-16.79,24.63-24.09,27.92-9.49,2.92-19.53,1.28-30.11-4.93-11.13-6.02-17.52-14.6-19.16-25.73-.91-20.62,3.01-39.5,11.77-56.66,4.38-8.76,8.85-16.19,13.41-22.31,4.56-6.11,9.49-10.99,14.78-14.64-3.1-3.65-5.38-7.48-6.84-11.5-1.64-4.2-1.37-6.93.82-8.21,27.19-10.76,57.29-16.05,90.32-15.87,3.83-6.75,7.39-12.45,10.67-17.11,3.28-4.65,6.47-8.25,9.58-10.81,2.19-1.46,4.47-1.64,6.84-.55,1.46.55,2.78,1.28,3.97,2.19,1.18.92,2.51,2.01,3.97,3.28.36,0,.59.09.68.27.09.18.32.37.68.55,2.74,2.19,4.83,4.47,6.3,6.84.91,2.19.64,4.02-.82,5.47-2.01,1.64-3.93,3.47-5.75,5.47-1.83,2.01-3.65,4.2-5.47,6.57,12.41,1.28,22.35,3.65,29.83,7.12,4.93,2.92,8.57,7.3,10.95,13.14,2.37,5.84,3.56,11.5,3.56,16.97-.37,5.11-1.92,7.66-4.65,7.66.55-6.75-4.2-12.32-14.23-16.7-5.11-2.37-10.91-4.33-17.38-5.88-6.48-1.55-13.73-2.69-21.76-3.42ZM740.58,752.94c1.64,6.39,4.74,10.77,9.31,13.14,6.02,2.56,12.86-1.09,20.53-10.95,3.83-4.93,7.62-10.4,11.36-16.42,3.74-6.02,7.43-12.59,11.08-19.71,3.65-7.48,6.89-14.37,9.72-20.66,2.83-6.3,5.52-12.27,8.07-17.93.91-2.01,1.73-3.78,2.46-5.34.73-1.55,1.37-3.05,1.92-4.52,2.01-4.2,4.01-8.39,6.02-12.59,2.01-4.2,4.01-8.3,6.02-12.32-19.71.92-37.04,5.29-52,13.14,1.27.55,2.6,1.23,3.97,2.05,1.37.82,2.78,1.69,4.24,2.6,1.64.73,3.19,1.74,4.65,3.01,4.2,2.56,6.3,5.84,6.3,9.85,0,1.64-.37,3.83-1.09,6.57-.73,2.74-1.83,6.02-3.28,9.85-1.46,3.65-3.15,7.3-5.06,10.95-1.92,3.65-4.15,7.3-6.71,10.95-4.56,6.94-10.49,11.86-17.79,14.78-1.64.37-3.28.68-4.93.96-1.64.27-3.19.23-4.65-.14-1.46-.18-2.92-.5-4.38-.96-1.46-.45-3.01-1.05-4.65-1.78-3.1,10.22-3.47,18.71-1.09,25.45h0ZM767.68,694.64c2.37-5.65,3.83-10.95,4.38-15.87-2.56,2.01-5.75,5.75-9.58,11.22-2.01,2.56-3.93,5.2-5.75,7.94-1.83,2.74-3.56,5.38-5.2,7.94-3.28,5.29-4.93,8.58-4.93,9.85,4.56.55,8.66-1.27,12.32-5.47,1.82-2.19,3.51-4.56,5.06-7.12,1.55-2.55,2.78-5.38,3.69-8.48h0Z"/>
    <g>
      <path class="cls-2" d="M405.75,428.27l-.49,37.43-39.98-.52-1.47,113.13-47.21-.62,1.47-113.13-39.55-.51.49-37.43,126.74,1.65Z"/>
      <path class="cls-2" d="M498.5,557.3l-50.18-.65-7.74,22.66-49.55-.65,57.04-149.84,54.44.71,52.9,151.27-49.76-.65-7.15-22.85ZM487.48,521.64l-13.06-42.07-14.16,41.71,27.22.35Z"/>
      <path class="cls-2" d="M557.44,465.55c6.18-11.54,14.91-20.47,26.19-26.78,11.28-6.3,24.51-9.36,39.68-9.16,13.04.17,24.67,2.77,34.89,7.79,10.21,5.02,18.49,12.04,24.82,21.06,6.33,9.01,10.49,19.49,12.46,31.43l-49.76-.65c-2.2-4.99-5.38-8.9-9.52-11.71-4.15-2.82-8.91-4.26-14.3-4.33-7.94-.1-14.25,2.79-18.94,8.69-4.69,5.89-7.09,13.88-7.22,23.94-.13,10.07,2.07,18.11,6.6,24.12,4.53,6.02,10.76,9.07,18.7,9.18,5.39.07,10.19-1.25,14.41-3.96,4.21-2.71,7.49-6.53,9.83-11.46l49.76.65c-2.28,11.88-6.71,22.24-13.27,31.09-6.57,8.85-15.02,15.65-25.36,20.41-10.34,4.76-22.04,7.05-35.08,6.88-15.17-.2-28.31-3.59-39.43-10.19-11.12-6.59-19.61-15.74-25.48-27.45-5.88-11.7-8.71-25-8.52-39.88.19-14.89,3.38-28.1,9.56-39.65Z"/>
      <path class="cls-2" d="M731.06,574.58c-11.75-6.82-21.02-16.15-27.81-28.01-6.8-11.86-10.09-25.16-9.9-39.9.19-14.74,3.84-27.95,10.94-39.63,7.1-11.68,16.61-20.73,28.54-27.17,11.92-6.44,24.97-9.56,39.15-9.38,14.18.18,27.1,3.65,38.79,10.39,11.68,6.75,20.88,16.05,27.6,27.9,6.72,11.86,9.99,25.16,9.79,39.9-.19,14.75-3.8,27.96-10.83,39.63-7.03,11.68-16.51,20.77-28.43,27.28-11.93,6.51-24.9,9.67-38.94,9.49-14.18-.18-27.14-3.68-38.89-10.5ZM792.33,532.31c5.18-5.96,7.84-14.04,7.97-24.25.13-10.35-2.31-18.57-7.33-24.66-5.03-6.09-12.22-9.2-21.57-9.32-9.5-.12-16.84,2.79-22.02,8.75-5.18,5.96-7.84,14.11-7.98,24.46-.13,10.21,2.31,18.36,7.34,24.45,5.02,6.09,12.29,9.2,21.79,9.32,9.36.12,16.62-2.79,21.81-8.76Z"/>
      <path class="cls-2" d="M864,573.66c-11.59-8.59-17.77-21.04-18.55-37.36l50.19.65c.6,8.66,4.37,13.03,11.31,13.12,2.55.03,4.72-.54,6.51-1.72,1.79-1.18,2.7-3.05,2.73-5.6.05-3.54-1.83-6.44-5.63-8.69-3.8-2.24-9.72-4.84-17.76-7.78-9.6-3.53-17.53-6.96-23.79-10.31-6.27-3.34-11.63-8.16-16.08-14.46-4.46-6.3-6.55-14.33-6.28-24.12.13-9.78,2.75-18.08,7.87-24.89,5.12-6.81,12.07-11.93,20.83-15.36,8.76-3.43,18.6-5.07,29.52-4.93,18.43.24,33.01,4.68,43.75,13.33,10.73,8.65,16.28,20.7,16.65,36.16l-50.82-.66c-.09-4.26-1.11-7.32-3.07-9.19-1.96-1.86-4.36-2.82-7.19-2.86-1.99-.03-3.62.63-4.92,1.95-1.29,1.33-1.95,3.2-1.99,5.61-.05,3.4,1.8,6.23,5.53,8.47,3.73,2.25,9.68,4.99,17.86,8.21,9.45,3.67,17.24,7.17,23.37,10.52,6.12,3.34,11.41,7.95,15.88,13.82,4.46,5.88,6.63,13.2,6.52,21.99-.12,9.22-2.5,17.45-7.13,24.69-4.63,7.25-11.3,12.86-20,16.86-8.7,4-19.01,5.92-30.92,5.77-18.01-.23-32.8-4.64-44.39-13.23Z"/>
    </g>
  </g>
  <g>
    <polygon class="cls-1" points="460.66 521.58 487.81 521.99 474.87 480 460.66 521.58"/>
    <path class="cls-1" d="M758.11,710.62c1.82-2.18,3.51-4.54,5.06-7.09,1.55-2.54,2.78-5.36,3.7-8.45,2.37-5.63,3.84-10.91,4.4-15.82-2.55,2-5.74,5.72-9.58,11.17-2.01,2.55-3.93,5.18-5.75,7.9-1.83,2.73-3.56,5.36-5.2,7.91-3.29,5.27-4.93,8.55-4.93,9.82,4.55.55,8.64-1.25,12.29-5.44Z"/>
    <path class="cls-1" d="M602.33,530.49c4.5,6.01,10.71,9.07,18.63,9.19,5.37.08,10.16-1.23,14.38-3.92,4.21-2.69,7.49-6.5,9.82-11.41l49.55.74c-1.12-5.63-1.67-11.5-1.58-17.63.09-5.82.74-11.39,1.9-16.73l-49.36-.74c-2.19-4.98-5.35-8.88-9.48-11.7-4.13-2.82-8.88-4.27-14.25-4.35-7.92-.12-14.22,2.76-18.9,8.62-4.69,5.87-7.1,13.82-7.25,23.86-.15,10.04,2.03,18.06,6.53,24.07Z"/>
    <path class="cls-1" d="M681.81,712.66c2.82-2.54,5.38-5.76,7.66-9.68,2.28-3.91,4.11-8.04,5.48-12.41,1.37-4.37,2.24-8.09,2.62-11.19-1.82,1.27-4.15,3.68-6.97,7.22-2.83,3.54-5.57,7.32-8.21,11.31-2.65,4-4.93,7.73-6.85,11.18-1.92,3.45-2.88,5.64-2.88,6.55,3.27.55,6.32-.44,9.15-2.98Z"/>
    <path class="cls-1" d="M908.73,605.58c13.84.03,26.26-2.43,36.91-7.3,11.77-5.38,21.03-13.22,27.51-23.31,6.42-10,9.77-21.41,9.96-33.9.19-12.76-3.19-23.82-10.05-32.89-2.04-2.69-4.23-5.2-6.56-7.52,3.93-.47,7.61-2.26,10.43-5.1,3.39-3.41,5.24-8.05,5.13-12.85-.45-20.5-8.44-37.61-23.1-49.46-13.79-11.15-32.11-16.98-54.46-17.31-.51,0-1.02-.01-1.53-.01-12.52-.02-24.17,2.02-34.61,6.08-11.82,4.6-21.41,11.7-28.5,21.11,0,0,0,0,0,.01-6-6.36-12.87-11.84-20.62-16.34-14.23-8.26-30.14-12.57-47.28-12.83-.47,0-.94-.01-1.41-.01-16.59-.03-32.16,3.8-46.29,11.4-10.78,5.79-20.04,13.41-27.66,22.72-7.89-10.87-18.15-19.47-30.53-25.6-12.51-6.18-26.76-9.44-42.35-9.67-.54,0-1.07-.01-1.61-.01-17.54-.03-33.31,3.77-46.85,11.3-14.22,7.91-25.38,19.26-33.16,33.74-2.27,4.22-4.17,8.65-5.79,13.23h-.41s-16.23-46.7-16.23-46.7c-2.44-7.02-9.01-11.77-16.45-11.88,0,0-54.44-.81-54.52-.81-7.33-.01-13.93,4.5-16.56,11.37l-8.22,21.47.23-15.51c.15-9.77-7.66-17.81-17.43-17.95,0,0-126.55-1.89-126.62-1.89-4.61,0-9.04,1.78-12.36,5-3.37,3.27-5.3,7.74-5.37,12.43l-.56,37.33c-.15,9.77,7.66,17.81,17.43,17.95l21.75.33-1.43,95.13c-.07,4.69,1.73,9.22,4.99,12.59,3.27,3.37,7.74,5.3,12.43,5.37,0,0,47.24.71,47.31.71,5.37.01,10.18-2.38,13.44-6.16,3,3.7,7.35,6.06,12.1,6.5-4.89,4.62-9.42,9.49-13.56,14.58-8.01,9.86-14.2,20.15-18.41,30.56-5.07,12.54-6.06,24.36-2.99,35.06,2.5,8.84,7.64,16.28,15.26,22.08,2.61,1.99,5.4,3.88,8.36,5.65-.35-.04-.7-.07-1.06-.1-.56-.04-1.11-.06-1.65-.06-5.13-.01-9.94,1.65-13.91,4.81-.43.34-.84.7-1.24,1.08-5.89,5.65-11.73,12.56-17.37,20.52-5.6,7.91-10.51,16.35-14.62,25.14-2.61,5.63-4.71,11.36-6.24,16.99-1.69,6.2-2.55,12.3-2.56,18.11-.01,6.89,1.37,13.34,4.13,19.19,3.04,6.45,7.83,11.84,14.23,16.02.22.14.45.28.67.42,4.77,2.82,10.47,4.91,16.95,6.22,4.37.88,9.34,1.34,14.76,1.35,2.02,0,4.16-.05,6.34-.17.09,0,.19-.01.28-.02,8.95-.62,18.29-2.42,27.76-5.34,9.06-2.8,18.04-6.4,26.7-10.71,8.62-4.29,16.85-9.2,24.47-14.59,7.7-5.45,14.63-11.23,20.58-17.16,3.17-3.16,6.05-6.36,8.64-9.59.26.56.53,1.12.82,1.67.46.91,1.01,1.77,1.62,2.58,6.05,8.01,14.53,14.06,25.18,17.98.2.07.4.15.6.21,5.53,1.81,10.92,2.74,16.01,2.75,5.31.01,10.38-.96,15.06-2.89.86-.35,1.69-.77,2.48-1.26,6.32-3.85,12.45-8.96,18.53-15.45-1.7,13.73.96,25.73,7.94,35.7.32.45.65.89,1.01,1.31,7.69,9.05,16.5,14.76,26.18,16.96,3.08.81,6.09,1.22,8.96,1.22h0c9.55.02,17.93-4.5,22.98-12.4,3.29-5.15,3.7-11.62,1.07-17.14-1.84-3.87-5-6.88-8.81-8.57.13-2.44.41-5.05.83-7.79.56-3.68,1.49-7.86,2.73-12.41,2.3,2.28,5,4.53,8.25,6.86,3.51,2.52,7.42,4.74,11.6,6.6,4.69,2.08,9.52,3.43,14.33,4,1.31.16,2.63.24,3.93.24,5.34.01,10.47-1.27,15.24-3.81.11-.06.22-.12.34-.18,6.8-3.81,13.71-8.67,20.54-14.44.31-.26.62-.52.92-.79,4.77,7.23,11.54,13.31,20.13,18.03,9.8,5.72,19.7,8.63,29.45,8.65,4.89,0,9.76-.72,14.46-2.15.7-.21,1.39-.47,2.06-.77.81-.36,1.63-.76,2.43-1.2,2.53,6.01,5.87,11.15,10.01,15.37,3.62,3.87,7.57,6.97,11.74,9.22,4.35,2.35,8.89,3.87,13.5,4.54,1.95.28,3.88.43,5.73.43,7.87.02,14.94-2.51,20.44-7.31,5.2-4.53,7.3-11.67,5.36-18.29-1.68-5.78-6.17-10.24-11.81-11.97-.43-1.75-.95-5.32-.56-11.79,1.03-16.89,5.53-37.07,13.38-59.96,3.99-11.56,8.52-22.84,13.46-33.54,3.29-7.11,6.81-14.09,10.53-20.84,2.85.47,5.54,1.01,8.06,1.62,5.29,1.28,10,2.88,14.01,4.74.12.06.24.11.36.16,1.77.78,2.92,1.44,3.64,1.92.32,3.9,1.92,7.61,4.6,10.53,3.34,3.64,8.05,5.71,12.99,5.72,15.17.03,21.51-12.92,22.33-24.02.03-.42.05-.85.05-1.27.01-7.72-1.6-15.65-4.81-23.6-3.83-9.46-9.96-16.76-18.24-21.69-.52-.31-1.05-.59-1.59-.84-2.27-1.05-4.67-2.02-7.21-2.9.54-3.6.14-7.38-1.14-11.07,3.27.32,6.62.52,10.06.57.52,0,1.55.01,1.55.01ZM366.05,465.44l-1.69,112.82-47.08-.7,1.69-112.82-39.45-.59.56-37.33,126.39,1.89-.56,37.33-39.87-.6ZM557.69,466.18c6.18-11.5,14.9-20.38,26.17-26.65,11.26-6.27,24.46-9.29,39.59-9.06,13.01.19,24.6,2.81,34.78,7.84,10.17,5.03,18.41,12.05,24.71,21.05,6.19,8.85,10.27,19.1,12.25,30.76,1.79-7.92,4.75-15.32,8.94-22.17,7.1-11.63,16.61-20.65,28.51-27.04,11.9-6.4,24.92-9.49,39.06-9.28,14.14.21,27.03,3.69,38.66,10.44,11.63,6.75,20.79,16.04,27.47,27.88,6.68,11.84,9.91,25.11,9.69,39.81-.22,14.71-3.85,27.87-10.88,39.5-7.03,11.63-16.5,20.68-28.41,27.15-11.91,6.47-24.85,9.6-38.85,9.38-14.14-.21-27.06-3.72-38.77-10.55-11.71-6.82-20.93-16.15-27.68-27.99-3.91-6.85-6.61-14.2-8.19-22.02-2.31,11.78-6.73,22.05-13.26,30.82-6.57,8.81-15.01,15.58-25.33,20.3-10.33,4.73-21.99,6.99-34.99,6.8-15.13-.23-28.23-3.64-39.3-10.24-11.07-6.6-19.53-15.74-25.36-27.43-5.84-11.68-8.64-24.95-8.42-39.79.22-14.85,3.42-28.02,9.61-39.52ZM617.88,815.17c-2.56,4-6.83,5.17-12.84,3.52-6-1.29-11.64-5.03-16.9-11.22-4.72-6.74-6.25-15.2-4.59-25.39,1.47-6.91,3.3-13.78,5.5-20.6,2.2-6.82,4.85-13.95,7.96-21.41,3.29-9.27,6.04-17.46,8.24-24.55,3.11-10.18,3.58-18.37,1.41-24.56-1.99-6.37-7.35-11.21-16.08-14.5,2.34,10.01.96,22.02-4.16,36.02-5.13,14.55-12.25,28.55-21.37,41.99-9.13,13.08-18.15,22.35-27.08,27.79-5.28,2.17-11.56,2.07-18.83-.31-7.46-2.74-13.18-6.76-17.17-12.04-5.62-10.93-4.58-29.22,3.11-54.86,3.67-13.09,7.97-25.92,12.9-38.46,4.94-12.55,10.6-25,17-37.36-9.29,2.9-17.67,7.06-25.14,12.51-1.46.91-3.18.63-5.18-.83-.72-.91-1.5-1.96-2.31-3.14-.82-1.18-1.59-2.5-2.31-3.96-.91-1.27-1.5-2.55-1.77-3.82-.02-.09-.04-.18-.06-.27-3.62,7.19-6.62,13.97-8.99,20.32-2.47,6.64-4.03,12.46-4.67,17.46-.65,5.01.03,8.51,2.03,10.51-1.82,1.63-4.19,2.22-7.1,1.76-2.91-.46-5.73-1.74-8.45-3.84-2.73-2.1-5.04-4.83-6.94-8.2-1.9-3.37-2.58-7.14-2.03-11.33.56-5.09,1.88-10.73,3.99-16.92,2.1-6.18,4.16-12.41,6.18-18.69,2.01-6.27,3.53-12.28,4.54-18.01,1.01-5.73.7-10.78-.93-15.15-.91-2.36-3.32-3.05-7.23-2.06-3.92.99-8.6,3.17-14.07,6.52-5.47,3.36-11.25,7.58-17.36,12.66-6.11,5.08-11.81,10.49-17.09,16.21-5.29,5.72-9.81,11.49-13.55,17.31-3.74,5.82-5.89,11-6.44,15.55-.55,4.55,1.12,8.33,5.03,11.34,3.9,3.01,9,5.93,15.27,8.76,6.27,2.84,13.13,5.76,20.59,8.77,7.45,3.02,14.32,6.67,20.59,10.96,6.27,4.29,11.4,9.58,15.39,15.86,3.99,6.29,5.7,14.07,5.14,23.35-.19,4.55-1.89,9.46-5.08,14.73-3.2,5.27-7.44,10.54-12.72,15.81-5.29,5.27-11.4,10.35-18.32,15.25-6.93,4.9-14.31,9.3-22.14,13.2-7.83,3.9-15.85,7.11-24.04,9.64-8.19,2.53-16.11,4.06-23.76,4.59-6.55.35-12.1.07-16.65-.85-4.55-.92-8.37-2.29-11.46-4.12-3.64-2.37-6.27-5.29-7.9-8.75-1.63-3.46-2.44-7.33-2.43-11.61,0-4.27.65-8.78,1.94-13.51,1.28-4.73,3.02-9.45,5.21-14.18,3.65-7.81,7.99-15.27,13.01-22.36,5.02-7.09,10.08-13.08,15.18-17.99.91-.72,2-1.04,3.28-.95,1.27.1,2.36.46,3.27,1.1.91.64,1.5,1.41,1.77,2.32.27.91-.05,1.64-.96,2.18-3.1,2.54-6.2,5.99-9.3,10.35-3.11,4.36-5.71,9-7.81,13.91-2.1,4.91-3.53,9.78-4.26,14.6-.74,4.82-.43,9.01.93,12.56,1.36,3.55,3.99,6.11,7.9,7.66,3.91,1.56,9.59,1.52,17.06-.1,7.28-1.8,14.84-4.7,22.67-8.69,7.83-3.99,15.03-8.57,21.59-13.74,6.56-5.17,11.94-10.58,16.14-16.21,4.2-5.63,6.3-10.91,6.31-15.82.01-5.28-1.76-9.74-5.3-13.39-3.54-3.64-8-6.88-13.36-9.72-5.36-2.83-11.27-5.39-17.73-7.68-6.46-2.29-12.64-4.75-18.55-7.41-5.91-2.65-11.14-5.71-15.68-9.17-4.54-3.46-7.54-7.75-8.98-12.85-1.99-6.92-1.2-14.78,2.37-23.61,3.57-8.82,8.81-17.49,15.75-26.04,6.93-8.54,15.04-16.3,24.34-23.29,9.29-6.98,18.63-12.02,28.01-15.1,9.38-3.07,18.2-3.69,26.48-1.86,8.27,1.84,15.04,7.31,20.3,16.42,1.28-2.73,2.97-5.82,5.07-9.27,2.1-3.45,4.15-6.82,6.16-10.09,1.12-1.83,2.23-3.53,3.32-5.13l-5.01-16.12-50.05-.75-7.76,22.58-49.41-.74,57.17-149.32,54.29.81,52.47,150.97-18.03-.27c.19,1.48-.4,2.74-1.79,3.78-3.47,3.09-7.38,7.49-11.76,13.22-4.38,5.72-8.72,12.09-13,19.08-2.34,3.82-4.6,7.72-6.81,11.7,12.65-5.24,27.25-9.43,43.8-12.58,3.1-5.27,6.16-9.81,9.17-13.63,3.01-3.82,5.79-6.9,8.34-9.26,2.91-2.36,6.56-2.53,10.92-.52,4.18,2.01,7.54,4.93,10.08,8.75,2.54,3.83,2.9,6.92,1.07,9.28-.37.37-.64.64-.82.82-.18.18-.46.37-.82.54,18.92-.51,34.39,1.7,46.39,6.64,2.73,1.46,4.95,3.11,6.68,4.93,1.72,1.82,3.13,4.01,4.22,6.56,1.99,4.55,2.71,9.47,2.16,14.74-.92,4.73-2.47,7.73-4.66,9,1.11-8.91-5.34-15.3-19.34-19.14-14.37-4.21-31.38-5.25-51.04-3.1-5.11,7.63-9.9,15.63-14.38,23.99-4.48,8.36-8.81,17.27-13.02,26.73-8.41,19.27-14.17,35.82-17.29,49.64-3.12,14.37-2.87,23.47.77,27.3,3.27,2.19,8.19.11,14.75-6.25,6.38-6.54,12.76-15.44,19.16-26.71,3.1-5.82,5.66-11.5,7.68-17.05,2.01-5.54,3.48-11.05,4.4-16.51,1.66-10.55-1.15-18.38-8.42-23.49-2.73-1.64-3.81-4.37-3.26-8.19.91-3.64,2.83-7.09,5.75-10.36,1.46-1.63,2.87-3.09,4.24-4.36,1.37-1.27,2.96-2.18,4.78-2.72,2.91-1.27,5.46-.54,7.64,2.2.36.37.72.91,1.09,1.64.18.91.58,1.78,1.22,2.6.63.82,1.4,1.78,2.31,2.87.91,1.28,2.36,2.56,4.36,3.83,2,1.28,4.54,2.83,7.63,4.65,10.72,5.48,19.36,11.6,25.9,18.34,5.99,6.93,7.79,17.12,5.4,30.58-.55,3.46-1.56,7.5-3.03,12.14-1.47,4.64-3.21,9.96-5.22,15.96-2.02,5.64-3.89,11.28-5.63,16.91-1.74,5.64-3.43,11.37-5.08,17.19-1.65,5.82-2.85,11.14-3.58,15.96-.74,4.82-1.11,9.33-1.12,13.51.53,8.01,4.07,12.38,10.62,13.12ZM898.01,635.01c4.91,2.92,8.54,7.3,10.89,13.12,2.35,5.83,3.53,11.47,3.52,16.93-.38,5.1-1.93,7.64-4.66,7.63.56-6.73-4.16-12.29-14.16-16.68-5.09-2.37-10.87-4.34-17.32-5.9-6.46-1.56-13.69-2.71-21.69-3.45-6.21,10.36-11.92,21.18-17.12,32.45-5.21,11.27-9.92,23-14.13,35.18-8.42,24.55-13.19,46.1-14.32,64.66-1.13,18.38,3.22,28.3,13.04,29.78-2.92,2.54-6.92,3.44-12.02,2.71-2.55-.37-5.09-1.24-7.64-2.61-2.55-1.37-5-3.33-7.36-5.88-4.9-4.92-8.17-12.21-9.78-21.86-.72-6.19-.25-14.19,1.41-24.02-8.76,15.27-16.79,24.53-24.07,27.79-9.47,2.89-19.48,1.24-30.02-4.97-11.09-6.03-17.44-14.59-19.06-25.7-.18-4.26-.14-8.44.09-12.56-1.61,2.03-3.26,4.04-4.99,6-5.47,6.18-11.21,11.81-17.23,16.89-6.01,5.09-11.94,9.26-17.77,12.52-2.73,1.45-5.65,1.99-8.74,1.62-3.1-.37-6.19-1.24-9.28-2.61-3.09-1.37-5.91-2.97-8.45-4.79-2.54-1.82-4.63-3.56-6.27-5.2-3.45-3.64-5.35-8.51-5.7-14.61-.35-6.1.34-12.69,2.09-19.79,1.75-7.09,4.35-14.46,7.82-22.09,3.47-7.64,7.35-14.82,11.64-21.54,4.29-6.72,8.8-12.63,13.55-17.72,4.74-5.08,9.2-8.81,13.4-11.17,2.55-1.27,4.92-1.94,7.1-2.03,2.18-.09,4.46.28,6.82,1.1,2.36.82,4.77,2.01,7.23,3.56,2.45,1.55,5.22,3.24,8.32,5.07,4.36,2.74,6.36,6.2,5.99,10.38,0,2-.79,5.55-2.34,10.64-1.56,5.09-3.75,10.41-6.58,15.96-2.83,5.55-6.3,10.73-10.4,15.54-4.1,4.82-8.71,8.04-13.8,9.66-3.64.91-6.83,1.17-9.56.8-2.73-.37-5.73-1.28-9-2.75-.92,1.82-1.92,4.5-3.02,8.05-1.1,3.55-1.92,7.14-2.48,10.78-.55,3.64-.74,6.87-.56,9.69.17,2.82,1.26,4.42,3.27,4.78,2.91.55,7.05-.98,12.43-4.62,5.37-3.63,10.98-8.39,16.82-14.3,5.83-5.9,11.58-12.58,17.24-20.03,4.2-5.54,7.8-10.98,10.8-16.32,1.05-2.5,2.19-4.97,3.44-7.4,4.38-8.73,8.86-16.13,13.42-22.22,4.56-6.09,9.48-10.94,14.77-14.57-3.09-3.64-5.36-7.47-6.8-11.48-1.63-4.19-1.35-6.92.83-8.19,27.13-10.68,57.17-15.9,90.11-15.66,3.83-6.72,7.39-12.41,10.68-17.04,3.28-4.63,6.47-8.22,9.57-10.76,2.19-1.45,4.46-1.63,6.82-.53,1.45.55,2.77,1.28,3.95,2.19,1.18.92,2.5,2.01,3.95,3.28.36,0,.59.1.68.27.09.18.31.37.68.55,2.72,2.19,4.81,4.47,6.26,6.84.9,2.19.63,4.01-.83,5.46-2.01,1.63-3.92,3.45-5.74,5.45-1.82,2-3.65,4.18-5.47,6.54,12.37,1.3,22.28,3.69,29.74,7.15ZM863.21,574.59c-11.54-8.59-17.68-21.02-18.43-37.29l50.05.75c.58,8.64,4.33,13,11.26,13.11,2.54.04,4.71-.53,6.5-1.71,1.78-1.17,2.7-3.03,2.73-5.58.05-3.53-1.81-6.42-5.6-8.68-3.79-2.25-9.69-4.84-17.7-7.79-9.56-3.54-17.47-6.98-23.71-10.33-6.24-3.34-11.58-8.16-16.01-14.45-4.43-6.29-6.5-14.31-6.22-24.06.15-9.76,2.78-18.02,7.9-24.81,5.12-6.78,12.06-11.87,20.8-15.28,8.75-3.4,18.56-5.02,29.45-4.86,18.38.27,32.91,4.73,43.6,13.38,10.69,8.65,16.2,20.68,16.54,36.09l-50.69-.76c-.08-4.24-1.09-7.3-3.04-9.17-1.95-1.87-4.34-2.82-7.17-2.86-1.98-.03-3.61.62-4.91,1.94-1.29,1.33-1.96,3.19-1.99,5.59-.05,3.39,1.78,6.21,5.49,8.46,3.71,2.25,9.65,4.99,17.8,8.22,9.42,3.68,17.18,7.18,23.28,10.53,6.1,3.35,11.37,7.95,15.81,13.81,4.43,5.87,6.59,13.18,6.46,21.94-.14,9.19-2.52,17.39-7.16,24.61-4.64,7.21-11.29,12.8-19.98,16.78-8.69,3.97-18.97,5.87-30.84,5.69-17.96-.27-32.7-4.7-44.24-13.28Z"/>
    <path class="cls-1" d="M748.34,532.57c5,6.09,12.23,9.2,21.71,9.34,9.33.14,16.59-2.76,21.77-8.69,5.18-5.93,7.85-13.99,8-24.17.15-10.32-2.27-18.52-7.27-24.61-5-6.08-12.16-9.2-21.5-9.34-9.47-.14-16.8,2.75-21.98,8.69-5.18,5.94-7.85,14.06-8,24.38-.15,10.18,2.27,18.31,7.27,24.4Z"/>
    <path class="cls-1" d="M778.26,661.39c1.36.82,2.77,1.69,4.23,2.6,1.64.73,3.18,1.74,4.63,3.01,4.18,2.56,6.27,5.84,6.26,9.84,0,1.64-.37,3.82-1.1,6.55-.73,2.73-1.83,6-3.29,9.82-1.47,3.64-3.15,7.27-5.07,10.91-1.92,3.64-4.16,7.27-6.71,10.91-4.56,6.91-10.49,11.81-17.77,14.71-1.64.36-3.28.68-4.92.95-1.64.27-3.19.22-4.64-.15-1.46-.18-2.91-.5-4.37-.96-1.46-.46-3-1.05-4.64-1.78-3.12,10.19-3.49,18.65-1.14,25.38,1.63,6.37,4.71,10.75,9.25,13.12,6,2.56,12.83-1.07,20.49-10.88,3.83-4.91,7.62-10.36,11.36-16.36,3.74-6,7.44-12.54,11.09-19.63,3.65-7.45,6.89-14.32,9.73-20.59,2.83-6.27,5.53-12.23,8.09-17.86.91-2,1.73-3.77,2.47-5.32.73-1.54,1.37-3.04,1.92-4.5,2.01-4.18,4.02-8.36,6.03-12.54,2.01-4.18,4.02-8.27,6.03-12.27-19.65.87-36.95,5.21-51.89,13,1.27.55,2.59,1.23,3.95,2.05Z"/>
  </g>
</svg>