<?xml version="1.0" encoding="UTF-8"?>
<svg id="Capa_1" xmlns="http://www.w3.org/2000/svg" version="1.1" viewBox="0 0 1245 1246.2">
  <!-- Generator: Adobe Illustrator 29.2.1, SVG Export Plug-In . SVG Version: 2.1.0 Build 116)  -->
  <defs>
    <style>
      .st0 {
        fill: #fff;
      }

      .st1 {
        fill: #ffd600;
      }
    </style>
  </defs>
  <circle cx="622.5" cy="623.1" r="475.1"/>
  <path class="st0" d="M622.5,1080.4c-61.7,0-121.6-12.1-178-35.9-54.5-23-103.4-56-145.3-98s-75-90.9-98-145.3c-23.8-56.4-35.9-116.3-35.9-178s12.1-121.6,35.9-178c23-54.5,56-103.4,98-145.3s90.9-75,145.3-98c56.4-23.8,116.3-35.9,178-35.9s121.6,12.1,178,35.9c54.5,23,103.3,56,145.3,98s75,90.9,98,145.3c23.8,56.4,35.9,116.3,35.9,178s-12.1,121.6-35.9,178c-23,54.5-56,103.3-98,145.3s-90.9,75-145.3,98c-56.4,23.8-116.3,35.9-178,35.9ZM622.5,171.7c-248.9,0-451.4,202.5-451.4,451.4s202.5,451.4,451.4,451.4,451.4-202.5,451.4-451.4-202.5-451.4-451.4-451.4Z"/>
  <g>
    <path class="st0" d="M1032,579.5l-20.2-19.3c-25.7-24.5-51.3-49.1-76.9-73.7-4.3-4.1-8.8-6.6-13.7-7.6-8-1.6-15,.1-21,5-2.5,2-4.8,4.4-6.9,6.7l-1.3,1.4c-23.2,24.2-46.5,48.5-69.8,72.8l-109.5,114.3c-9.9,10.3-9.5,26.8.8,36.8l9.6,9.2c29.4,28.2,58.9,56.4,88.3,84.6,1.3,1.3,2.7,2.3,4.1,3.2,4.3,2.7,9.1,4,13.8,4,6.9,0,13.8-2.8,18.9-8.1,13.7-14.3,27.4-28.6,41.1-42.8l20.1-21c38.3-40,76.6-80,114.9-120l1.8-1.8c2.8-2.9,5.7-5.9,8.3-9.2,8.1-10.2,6.9-25.2-2.6-34.3h0ZM929,713.5c-28.5,29.7-57,59.5-85.4,89.2-5.9,6.1-12.5,8-19.9,5.6-2.7-.9-5.5-2.5-7.5-4.5-34-32.3-68.2-65.2-97.3-93.1-3.8-3.6-5.9-8.3-6-13.2,0-5,1.8-9.8,5.5-13.6,22.8-23.7,45.9-47.8,68.3-71.2l25.1-26.3h0l91.2-95.2c6.6-6.9,18-7.2,25-.8,3.2,3,6.3,6,9.4,9l17.3,16.5c-2.8,7.2-9,28.9,9.2,47s28.8,26.2,23.2,41.8c-5.3,14.5-14.6,36-4.9,53.2-5.5,5.7-10.9,11.4-16.4,17.1l-36.8,38.4h0Z"/>
    <path class="st0" d="M973.9,604.4c-5.3,4.8-10.6,9.6-15.7,14.2-10.5-7.5-20.5-14.7-31-22.2,6.5-8.9,12.9-17.6,19.3-26.3-.4-.4-.9-.7-1.3-1.1-7.7,8-15.4,16.1-23.3,24.4-11.1-5.5-21.6-10.7-32.3-16,12.1-15.1,23.4-29.3,34.8-43.5-13.2,10.8-25,22.9-36.4,35.2-4.1,4.5-7.9,6-13.8,3.5-5.4-2.3-11.4-3.3-17.2-4.8-.1.5-.2,1-.4,1.5,6.7,3.1,13.5,6.2,20.8,9.6-3.2,3.4-5.5,5.8-7.7,8.3-11.3,12.2-21.8,26.6-42.3,16.9,5.1,2.6,10.2,5.3,15.3,7.9-.5,1.2-.6,1.9-1,2.3-1.4,1.5-2.8,2.9-4.3,4.2-12,11.1-22.2,27.2-42.5,15.3-.2,0-.7.5-1.7,1.3,5.6,2.7,10.8,5.2,17,8.2-5.7,5.2-10.7,9.2-15,13.7-9.5,9.9-19.3,18.3-34.3,10.5-.1,0-.6.5-1.3,1.1,4.6,2.3,9,4.4,14.3,7-5.8,5.3-10.8,9.8-15.7,14.3,6-2.5,11.1-6.2,16.4-9.4,2-1.2,5.2-2.3,7-1.5,10.8,4.9,21.3,10.5,32.9,16.3-8.4,7.6-15.5,14-22.5,20.4,7.9-3.6,14.7-8.8,21.9-13.2,2.6-1.6,7.3-2.8,9.5-1.6,10.5,5.6,20.4,12.2,31,18.7-11.5,10.4-22.1,20-32.7,29.6,7.5-3.7,15.1-7.5,21-13.1,10.7-10.1,20.9-14.1,32.7-2.2,0,0,.7-.3,1.5-.7-4.3-4-8.4-7.8-12.2-11.4,10.9-9.9,21.4-19.4,31.6-28.6,4.2,2.5,7.2,4.3,10.3,6.1.2-.3.4-.7.5-1.1-2.2-2.8-4.3-5.6-6.8-8.7,9.8-9.8,19.2-19.1,28.6-28.3,4.7,3,8.5,5.3,12.4,7.7.2-.3.4-.5.6-.8-3.1-3.4-6.1-6.8-9.6-10.6,9.2-10.7,18.2-21.1,27-31.4,5,3.2,9,5.7,13,8.2.3-.4.6-.7.9-1.1-3.5-3.8-7-7.7-10.5-11.5,4.1-6.1,7.9-11.6,11.6-17.2-.2-.1-.5-.3-.7-.4h0ZM881.7,586c1.4-1.4,5-2.3,6.6-1.6,9.2,4.2,18.1,9.1,28.5,14.4-9.2,9.4-17.1,17.8-25.3,25.7-1.2,1.2-4.5,1.5-6.1.7-9.3-4.3-18.3-9-28.2-13.9,8.5-8.8,16.3-17.2,24.5-25.3h0ZM834.7,631.8c12-10.9,25.2-12.5,39.5-4.7,2.8,1.5,5.5,3.3,9.9,5.9-8.8,8-16.7,15.4-25,22.4-1.5,1.3-5,1.8-6.9,1-9.3-4.2-18.3-9-28.8-14.4,4.4-4,7.8-7.1,11.3-10.2h0ZM823,688.2c-1.2,1-3.9,1.6-5.2,1-10.8-4.9-21.4-10.1-33-15.6,10.6-8.5,20.3-16.5,30.3-24.1,1.5-1.2,4.6-1.8,6.1-1,9.5,4.5,18.8,9.5,29.3,15-9.9,9-18.6,17-27.5,24.8h0ZM858.8,716.3c-10.9-7.6-21.3-15-32.3-22.7,10.6-8.7,20.6-16.8,31.6-25.9,10.2,6.4,20.7,13,32.1,20.1-10.8,9.8-20.8,18.8-31.3,28.4ZM899.4,679.9c-1.6,1.6-3.4,3.1-5.5,5-10.2-7.4-20-14.6-31.1-22.7,8.6-7.8,16.6-15.3,24.9-22.3,1.5-1.3,5.1-1.9,6.7-1,9.4,5.4,18.5,11.4,28.3,17.6-8.4,8.4-15.9,16-23.4,23.4h0ZM926.8,652.9c-10.3-7.3-20.2-14.4-30.6-21.8,8.8-9.7,17.1-19,26.2-29,10.9,6.8,21.5,13.3,33.5,20.8-10.4,10.7-19.5,20.2-29,30h0Z"/>
  </g>
  <g>
    <path class="st0" d="M311.3,756.3c-17.6-40.9-27.5-85.9-27.5-133.2s.4-16.2,1-24.2c-.2,0-.5,0-.7,0-1.7,0-3.3-.2-4.9-.4-.6,8.1-1,16.3-1,24.5,0,49.8,10.8,97,29.9,139.8.8-2.4,1.9-4.6,3.3-6.7h0Z"/>
    <path class="st0" d="M906.7,429c-62.1-90.6-166.3-150.2-284.2-150.2s-218.4,57.5-280.8,145.4c1.9,0,3.8-.2,5.6-.2.5,0,.9,0,1.4,0,61.6-84.5,161.4-139.6,273.8-139.6s215,56.8,276.4,143.5c2.8,0,5.4.4,7.8,1.1h0Z"/>
    <path class="st0" d="M944.1,728.7c-44.5,135.2-171.8,233.1-321.6,233.1s-205.6-51.7-267.5-131.7c-1.4.2-2.9.3-4.5.3s-1.8,0-2.7-.1c62.9,83.2,162.6,137.2,274.7,137.2s286-102.8,329.2-243.7c-2.1,2-4.7,3.7-7.6,5Z"/>
  </g>
  <g>
    <polygon class="st1" points="374.4 920.3 378 916.2 358.6 899 355 903.2 362.2 909.6 344.9 929.1 349.9 933.5 367.1 913.9 374.4 920.3"/>
    <polygon class="st1" points="395.1 929.3 387.2 939.7 376.4 931.5 384.3 921.1 379 917.1 359.9 942.2 365.2 946.2 373.1 935.8 383.9 944.1 376 954.4 381.2 958.5 400.4 933.4 395.1 929.3"/>
    <polygon class="st1" points="417.2 951 420.3 946.5 402.5 934.7 385.1 961.1 402.9 972.8 405.9 968.2 393.7 960.2 398 953.7 409.2 961.2 412.2 956.6 400.9 949.2 405 943 417.2 951"/>
    <path class="st1" d="M449.5,970.8c0-2.8-.7-5.2-2-7.4-1.4-2.2-3.3-3.9-5.8-5.2-2.5-1.3-5-2-7.5-1.9-2.6,0-5,.8-7.3,2.4-2.3,1.5-4.2,3.8-5.9,6.8-1.6,3-2.4,5.9-2.4,8.6s.7,5.2,2.1,7.4c1.4,2.2,3.3,3.9,5.8,5.2s5,2,7.5,1.9c2.6,0,5-.8,7.3-2.4,2.3-1.5,4.2-3.8,5.9-6.8,1.6-3,2.5-5.9,2.5-8.7h0ZM442.9,970.8c-.1,1.7-.8,3.5-1.8,5.5-1,2-2.2,3.5-3.5,4.5-1.3,1-2.7,1.6-4.1,1.8-1.4.1-2.9-.2-4.3-1-1.4-.8-2.5-1.8-3.2-3-.7-1.3-1-2.7-.8-4.4.1-1.7.7-3.5,1.8-5.4s2.2-3.5,3.6-4.5c1.3-1,2.7-1.6,4.1-1.8s2.9.2,4.3.9c1.4.8,2.5,1.8,3.2,3,.7,1.3,1,2.7.8,4.4h0Z"/>
    <path class="st1" d="M465.4,991.3c1.9,0,3.6-.6,5-1.6,1.4-1,2.6-2.5,3.4-4.4.9-1.9,1.2-3.8,1-5.5-.2-1.8-.9-3.4-2.1-4.9-1.2-1.5-2.9-2.7-5.1-3.7l-11.4-5.1-12.8,28.9,6.1,2.7,4.5-10.2,4.5,2,.9,12.7,6.7,3-1.1-13.9c.1,0,.2,0,.3,0h0ZM460.1,973.9l4.1,1.8c1.2.5,2.1,1.1,2.7,1.8.6.7,1,1.4,1.1,2.3.1.8,0,1.7-.5,2.7-.4,1-1,1.7-1.6,2.1s-1.5.7-2.4.7c-.9,0-2-.3-3.1-.8l-4.1-1.8,3.9-8.7h0Z"/>
    <rect class="st1" x="461.6" y="989.1" width="31.6" height="6.7" transform="translate(-620.6 1077) rotate(-68.7)"/>
    <path class="st1" d="M510.9,1002.9l-12.5-4.1-1.6,4.8,6.4,2.1c-.4,1.2-1,2.1-1.8,2.9-.9.8-1.9,1.2-3,1.4-1.2.2-2.5,0-3.9-.4-1.6-.5-2.8-1.4-3.7-2.5-.9-1.2-1.4-2.6-1.6-4.2-.2-1.7.1-3.6.8-5.6.7-2.1,1.6-3.8,2.7-5,1.1-1.2,2.4-2,3.8-2.4,1.4-.4,2.9-.3,4.4.2.8.3,1.5.6,2.1,1,.6.4,1.1.9,1.5,1.5s.7,1.2.9,1.9c.2.7.3,1.4.2,2.2l6.4,2.1c.3-1.6.3-3.1,0-4.5-.3-1.5-.9-2.8-1.7-4.1-.8-1.3-1.9-2.4-3.2-3.4-1.3-1-2.8-1.7-4.5-2.3-2.6-.9-5.2-1-7.8-.5-2.5.5-4.8,1.7-6.8,3.6-2,1.9-3.5,4.5-4.6,7.7-1,3.2-1.4,6.1-.9,8.8.4,2.7,1.5,5,3.2,7,1.7,1.9,4,3.4,6.8,4.3,2.5.8,4.9,1.1,7.2.7,2.3-.4,4.3-1.3,6-2.8,1.7-1.5,3-3.6,3.9-6.2l1.2-3.8h0Z"/>
    <rect class="st1" x="501.1" y="1002.2" width="31.6" height="6.7" transform="translate(-589.3 1239.1) rotate(-74.7)"/>
    <polygon class="st1" points="546.3 996.3 542 1015.7 541.7 1015.6 532.7 993.3 527 992.1 520.2 1022.9 526.7 1024.3 531 1005 531.2 1005 540.4 1027.3 546 1028.6 552.8 997.7 546.3 996.3"/>
    <path class="st1" d="M564.2,999.4l-15.2,29.7,7.1,1,3.3-6.8,11.3,1.6,1.3,7.5,7.1,1-6.4-32.8-8.5-1.2h0ZM561.8,1018.5l5.5-11.3h.2s2.2,12.4,2.2,12.4l-8-1.1h0Z"/>
    <polygon class="st1" points="591 1002.5 584.3 1002.1 582 1033.6 602.2 1035 602.6 1029.6 589.1 1028.6 591 1002.5"/>
    <polygon class="st1" points="634.8 1003.6 613.9 1004 614.4 1035.6 621.1 1035.4 620.9 1023.5 633.7 1023.2 633.6 1017.8 620.8 1018 620.6 1009.4 634.9 1009.1 634.8 1003.6"/>
    <path class="st1" d="M656.5,1021.7c1.7-.9,2.9-2.2,3.7-3.7.8-1.6,1.1-3.4,1-5.5-.1-2.1-.7-3.9-1.7-5.3-1-1.5-2.4-2.6-4.1-3.3-1.7-.7-3.8-1-6.2-.9l-12.4.8,2.1,31.5,6.6-.4-.7-11.2,4.9-.3,6.7,10.8,7.4-.5-7.5-11.8c0,0,.2,0,.3-.1h0ZM643.7,1008.7l4.5-.3c1.3,0,2.4,0,3.2.3.9.3,1.5.8,2,1.5.5.7.7,1.5.8,2.6,0,1,0,1.9-.5,2.6-.4.7-1,1.3-1.8,1.7s-1.9.7-3.2.7l-4.5.3-.6-9.5h0Z"/>
    <polygon class="st1" points="672.3 1026.9 671.3 1019.2 684.7 1017.5 684 1012.1 670.6 1013.9 669.6 1006.5 684.1 1004.6 683.4 999.2 662.3 1001.9 666.4 1033.2 687.5 1030.5 686.8 1025 672.3 1026.9"/>
    <polygon class="st1" points="705.1 995 709 1014.4 708.8 1014.5 691.5 997.7 685.7 998.8 692 1029.8 698.5 1028.5 694.6 1009 694.8 1009 712.2 1025.7 717.9 1024.6 711.6 993.6 705.1 995"/>
    <path class="st1" d="M739.9,1007.4c0,.8,0,1.7-.2,2.4-.2.7-.5,1.4-1,2-.5.6-1,1.1-1.7,1.5s-1.4.8-2.3,1c-1.5.4-3,.4-4.4,0s-2.6-1.3-3.7-2.6c-1.1-1.3-1.9-3-2.5-5.2-.6-2.1-.8-4-.5-5.7.2-1.7.8-3,1.8-4.2,1-1.1,2.2-1.9,3.8-2.3.9-.2,1.7-.3,2.5-.3.8,0,1.6.2,2.3.5s1.3.7,1.9,1.3,1,1.2,1.4,2l6.5-1.8c-.7-1.7-1.6-3.1-2.7-4.3s-2.4-2-3.8-2.7c-1.4-.6-3-1-4.6-1s-3.4.2-5.1.7c-2.7.8-4.9,2-6.7,3.9-1.8,1.8-3,4.1-3.6,6.8-.6,2.7-.4,5.7.5,9,.9,3.3,2.3,5.9,4.2,7.9,1.9,2,4.1,3.3,6.6,3.9,2.5.6,5.1.5,7.8-.2,1.9-.5,3.6-1.3,5-2.4,1.4-1,2.5-2.2,3.3-3.5.8-1.3,1.4-2.7,1.7-4.2s.3-2.9,0-4.4l-6.5,1.8h0Z"/>
    <polygon class="st1" points="761.4 978 765.9 990.2 753.2 994.9 748.7 982.7 742.4 985 753.3 1014.6 759.6 1012.3 755 1000 767.8 995.4 772.3 1007.6 778.5 1005.3 767.6 975.7 761.4 978"/>
    <polygon class="st1" points="801.9 965.8 799.5 960.9 776.1 972.1 778.5 977 787.3 972.9 798.5 996.4 804.5 993.5 793.2 970 801.9 965.8"/>
    <path class="st1" d="M805.4,957.5l5.9,32.9,6.2-3.5-1.5-7.4,10-5.6,5.6,5.2,6.2-3.5-24.9-22.3-7.5,4.2h0ZM815,974.2l-2.4-12.3h.2c0-.1,9.2,8.4,9.2,8.4l-7,3.9h0Z"/>
    <path class="st1" d="M856.3,950.5l-5.6,3.7c.3.8.5,1.6.6,2.3,0,.8,0,1.5-.3,2.2s-.6,1.4-1.1,2-1.1,1.2-1.9,1.7c-1.3.9-2.7,1.3-4.2,1.3s-2.9-.4-4.3-1.3c-1.4-.9-2.7-2.3-4-4.2-1.2-1.8-2-3.6-2.2-5.2-.3-1.7-.1-3.2.4-4.5.6-1.3,1.5-2.5,2.9-3.3.8-.5,1.5-.9,2.3-1.1.8-.2,1.6-.3,2.3-.2s1.5.3,2.2.7,1.3.9,1.9,1.5l5.6-3.7c-1.2-1.4-2.5-2.5-3.9-3.3-1.4-.8-2.9-1.2-4.5-1.4-1.5-.2-3.1,0-4.7.4-1.6.4-3.2,1.2-4.7,2.2-2.3,1.5-4,3.4-5.2,5.7s-1.6,4.8-1.4,7.5c.2,2.7,1.3,5.5,3.2,8.4,1.9,2.9,4,5,6.4,6.3,2.4,1.3,4.9,1.9,7.4,1.7,2.5-.2,5-1,7.3-2.5,1.7-1.1,3-2.4,4-3.8s1.7-2.9,2.1-4.4c.4-1.5.5-3,.4-4.5-.2-1.5-.6-2.9-1.2-4.2h0Z"/>
    <path class="st1" d="M878.9,926.9c-2.1-2.7-4.4-4.6-6.9-5.8-2.5-1.1-5-1.5-7.6-1.1s-4.9,1.4-7.1,3.1c-2.2,1.7-3.8,3.8-4.8,6.1-1,2.4-1.2,4.9-.8,7.6s1.7,5.4,3.9,8.2c2.1,2.7,4.4,4.6,6.9,5.7s5,1.5,7.6,1.1c2.5-.4,4.9-1.4,7.1-3.1s3.8-3.8,4.8-6.1c1-2.4,1.2-4.9.8-7.6-.5-2.7-1.7-5.4-3.8-8.1h0ZM876.2,940.5c-.5,1.4-1.3,2.5-2.6,3.5-1.3,1-2.6,1.5-4.1,1.7-1.4.1-2.9-.2-4.4-1-1.5-.8-2.9-2.1-4.2-3.8-1.4-1.8-2.3-3.5-2.7-5.1s-.4-3.1,0-4.5c.5-1.4,1.3-2.5,2.6-3.5,1.3-1,2.7-1.5,4.1-1.7s2.9.2,4.3,1c1.5.8,2.9,2.1,4.2,3.9,1.4,1.8,2.2,3.4,2.7,5s.4,3.1,0,4.5h0Z"/>
    <path class="st1" d="M905.8,918.5c-.2-1.7-1-3.3-2.3-4.7-.9-1-1.8-1.7-2.8-2.1-1-.4-2.1-.7-3.2-.6-1.1,0-2.3.2-3.5.6s-2.4.9-3.7,1.6l-2.6,1.4c-.8.5-1.6.8-2.4,1.1s-1.5.4-2.2.3c-.7,0-1.3-.4-1.8-.9-.5-.5-.7-1.1-.8-1.8,0-.7,0-1.4.4-2.1.4-.7.9-1.5,1.7-2.2,1.2-1.1,2.4-1.7,3.5-1.8,1.2-.1,2.2.2,3.1,1.1l4.8-4.3c-1.3-1.4-2.8-2.3-4.4-2.7-1.7-.4-3.4-.3-5.3.2s-3.6,1.6-5.4,3.2c-1.7,1.5-3,3.2-3.8,5-.8,1.8-1.1,3.6-.9,5.3s.9,3.3,2.2,4.8c1.6,1.7,3.4,2.6,5.5,2.6,2.1,0,4.3-.7,6.7-2l3.1-1.7c1-.6,2-1,2.8-1.3s1.5-.4,2.2-.3,1.2.4,1.7.9c.5.6.8,1.2.8,2,0,.7-.1,1.5-.5,2.3-.4.8-1,1.6-1.9,2.3-.9.8-1.8,1.3-2.7,1.7-.9.3-1.8.4-2.7.3s-1.7-.6-2.5-1.3l-4.8,4.3c1.6,1.7,3.2,2.7,5.1,3.1s3.7.3,5.6-.4c1.9-.7,3.8-1.9,5.7-3.6,1.9-1.7,3.3-3.5,4.1-5.3.8-1.8,1.1-3.5.9-5.2h0Z"/>
  </g>
  <g>
    <path d="M931.3,517.6c-4-5.3-8.6-9.8-13.8-13.5l22.2.3-.3-14.2c-.5-19.4-7.7-34.8-21.5-45.9-13-10.4-30.3-15.9-51.5-16.1-12.4-.1-24,1.8-34.2,5.8-11,4.3-19.9,10.9-26.4,19.6-.9,1.2-1.7,2.5-2.5,3.7-6.4-7.5-13.9-13.8-22.6-18.8-13.5-7.8-28.6-11.9-44.8-12.1-16-.1-31.5,3.4-45.2,10.9-11.7,6.3-21.4,14.9-29.1,25.5-.7-1-1.3-2-2-3-7.5-10.7-17.5-19.2-29.6-25.1-11.8-5.8-25.4-8.9-40.2-9.1-17.4-.5-32.7,3.4-45.9,10.8-13.4,7.5-23.9,18.2-31.2,31.9-4,7.6-7,15.8-8.8,24.5l-23.5-67.1-72.7-1-19.1,50.1.7-50.4-152.1-2-.8,64.2,38.9.5-1.5,111.4,67.4.9h0l78.2,1,7.6-22.3,29.6.4,7,22.5,78.4,1-4.6-13.1c1.4,1,2.8,1.9,4.3,2.8,13,7.7,28.3,11.7,45.6,12,.5,0,1,0,1.5,0,14.2,0,27.3-2.7,39-8,12.2-5.6,22.4-13.8,30.2-24.4.8-1.1,1.6-2.2,2.4-3.4,7.4,10.6,16.8,19.4,28.1,25.9,13.6,7.9,28.7,12,45,12.2.4,0,.9,0,1.3,0,15.7,0,30.4-3.7,43.8-11,9.3-5.1,17.4-11.7,24.2-19.5,3.8,6.4,8.9,11.9,15.1,16.6,13.7,10.2,31.1,15.5,51.7,15.7.5,0,1,0,1.4,0,13.1,0,24.9-2.3,34.9-6.9,11-5,19.5-12.3,25.5-21.7,5.9-9.3,9-19.9,9.2-31.5.2-11.7-2.9-21.9-9.2-30.1h0ZM723.7,500.6c1.5-1.7,4.2-3.9,10.8-3.9h.4c6.6,0,9.3,2.3,10.9,4.2,2.8,3.4,4.2,8.6,4.1,15.4,0,6.7-1.6,11.8-4.5,15.1-1.6,1.8-4.2,3.9-10.6,3.9h-.4c-6.9,0-9.6-2.4-11.1-4.2-2.8-3.4-4.2-8.5-4.1-15.2,0-6.8,1.6-12,4.5-15.3h0ZM602.5,518.1l-3.8,7.9c-1.2,2.5-2.7,4.4-4.7,5.6-1.9,1.2-3.9,1.6-6.6,1.7-4.2,0-6.1-1.5-7.7-3.6-2.6-3.4-3.8-8.6-3.7-15.3,0-6.8,1.5-11.9,4.2-15.2,1.6-2.1,3.5-3.5,7.8-3.4,2.6,0,4.7.6,6.6,1.9,1.9,1.3,3.4,3.2,4.6,5.8l3.5,8,42,.5c0,1,0,1.9,0,2.9,0,1.2,0,2.5,0,3.7l-42.1-.5h0ZM348.9,488.1l34.3.5-35.5,93.3,1.2-93.8h0Z"/>
    <g>
      <path class="st1" d="M375.3,437.9l-.5,36.9-39.4-.5-1.5,111.4-46.5-.6,1.5-111.4-38.9-.5.5-36.9,124.8,1.6Z"/>
      <path class="st1" d="M466.6,565l-49.4-.6-7.6,22.3-48.8-.6,56.1-147.5,53.6.7,52.1,148.9-49-.6-7-22.5h0ZM455.7,529.8l-12.9-41.4-13.9,41.1,26.8.3Z"/>
      <path class="st1" d="M524.6,474.6c6.1-11.4,14.7-20.1,25.8-26.4s24.1-9.2,39.1-9c12.8.2,24.3,2.7,34.3,7.7,10,5,18.2,11.9,24.4,20.7,6.2,8.9,10.3,19.2,12.3,30.9l-49-.6c-2.2-4.9-5.3-8.8-9.4-11.5-4.1-2.8-8.8-4.2-14.1-4.3-7.8-.1-14,2.8-18.6,8.5s-7,13.7-7.1,23.6,2,17.8,6.5,23.7c4.5,5.9,10.6,8.9,18.4,9,5.3,0,10-1.2,14.2-3.9,4.2-2.7,7.4-6.4,9.7-11.3l49,.6c-2.2,11.7-6.6,21.9-13.1,30.6-6.5,8.7-14.8,15.4-25,20.1-10.2,4.7-21.7,6.9-34.5,6.8-14.9-.2-27.9-3.5-38.8-10-10.9-6.5-19.3-15.5-25.1-27s-8.6-24.6-8.4-39.3c.2-14.7,3.3-27.7,9.4-39h0Z"/>
      <path class="st1" d="M695.3,582c-11.6-6.7-20.7-15.9-27.4-27.6-6.7-11.7-9.9-24.8-9.8-39.3s3.8-27.5,10.8-39c7-11.5,16.3-20.4,28.1-26.8,11.7-6.3,24.6-9.4,38.5-9.2,14,.2,26.7,3.6,38.2,10.2s20.6,15.8,27.2,27.5,9.8,24.8,9.6,39.3c-.2,14.5-3.8,27.5-10.7,39-6.9,11.5-16.2,20.5-28,26.9s-24.5,9.5-38.3,9.3c-14-.2-26.7-3.6-38.3-10.3h0ZM755.6,540.3c5.1-5.9,7.7-13.8,7.8-23.9.1-10.2-2.3-18.3-7.2-24.3-5-6-12-9.1-21.2-9.2-9.3-.1-16.6,2.8-21.7,8.6s-7.7,13.9-7.8,24.1c-.1,10,2.3,18.1,7.2,24.1,5,6,12.1,9.1,21.5,9.2,9.2.1,16.4-2.8,21.5-8.6Z"/>
      <path class="st1" d="M826,581c-11.4-8.5-17.5-20.7-18.3-36.8l49.4.6c.6,8.5,4.3,12.8,11.1,12.9,2.5,0,4.6-.5,6.4-1.7,1.8-1.2,2.7-3,2.7-5.5,0-3.5-1.8-6.3-5.5-8.5-3.7-2.2-9.6-4.8-17.5-7.7-9.5-3.5-17.3-6.8-23.4-10.2-6.2-3.3-11.5-8-15.8-14.2-4.4-6.2-6.5-14.1-6.2-23.7.1-9.6,2.7-17.8,7.8-24.5,5-6.7,11.9-11.8,20.5-15.1s18.3-5,29.1-4.9c18.1.2,32.5,4.6,43.1,13.1s16,20.4,16.4,35.6l-50-.6c0-4.2-1.1-7.2-3-9s-4.3-2.8-7.1-2.8c-2,0-3.6.6-4.8,1.9s-1.9,3.1-2,5.5c0,3.4,1.8,6.1,5.4,8.3s9.5,4.9,17.6,8.1c9.3,3.6,17,7.1,23,10.3,6,3.3,11.2,7.8,15.6,13.6,4.4,5.8,6.5,13,6.4,21.7-.1,9.1-2.5,17.2-7,24.3s-11.1,12.7-19.7,16.6c-8.6,3.9-18.7,5.8-30.4,5.7-17.7-.2-32.3-4.6-43.7-13h0Z"/>
    </g>
  </g>
  <g>
    <g>
      <path d="M616.8,632.9c-1.5-3.4-3.4-6.4-5.8-8.9-2.3-2.4-5.2-4.6-8.7-6.5l-.8-.4c-10.5-4.3-23.3-6.7-38.3-7.1-.5-2.1-1.5-4.3-3.1-6.8-3.3-5-7.8-8.9-13.4-11.6-9.8-4.5-16.4-.9-19.9,2-2.8,2.6-5.9,6-9.1,10.1-2.5,3.2-5.1,7-7.7,11.2-6.6,1.4-12.9,2.9-18.9,4.6,2.4-3.5,4.7-6.8,7.1-10,3.9-5.1,7.4-9,10.3-11.7,5.4-4.3,6.3-11.1,2.4-17.4-2.3-3.6-5.5-6.9-9.5-9.7-3.8-2.7-8-4.8-12.4-6.3-2.3-.7-9.2-3-15,.9-1.9,1.3-3.9,3.4-6.5,6.8-2.1,2.8-4.2,5.9-6.2,9.3-1.7,2.7-3.4,5.5-5.1,8.4-4.9-4.7-10.6-7.8-17.1-9.2-9.6-2.1-19.9-1.4-30.6,2.1-10.1,3.3-20.2,8.8-30,16.2-9.7,7.3-18.2,15.5-25.4,24.5-7.3,9.1-13,18.4-16.8,27.9-4.2,10.4-5.1,20.1-2.6,28.7,1.9,6.8,5.9,12.5,11.9,17,5,3.8,10.8,7.2,17.1,10,6,2.7,12.4,5.2,19,7.5,6,2.1,11.5,4.5,16.4,7.1,4.5,2.4,8.2,5.1,11.1,8,2,2,2.9,4.3,2.9,7.4s-1.5,6.6-4.5,10.6c-3.7,5-8.5,9.8-14.4,14.5-6,4.8-12.7,9-19.9,12.7-7.1,3.7-14.1,6.3-20.4,7.9-7.8,1.7-11,.9-12,.5-2.1-.8-2.7-1.8-3.1-2.8-.8-2.1-1-4.9-.5-8.2.6-4,1.8-8.2,3.6-12.4,1.8-4.3,4.1-8.4,6.8-12.2,2.5-3.5,5-6.3,7.3-8.4,3.7-2.6,5.2-6.9,3.9-11.3-.8-2.7-2.5-5-4.9-6.7-2.1-1.5-4.7-2.4-7.5-2.6-3.4-.3-6.5.7-9.1,2.8l-.6.5c-5.4,5.2-10.8,11.6-16,19-5.2,7.4-9.8,15.2-13.6,23.4-2.4,5.1-4.2,10.2-5.6,15.3-1.4,5.4-2.2,10.6-2.2,15.5s1.1,10.5,3.2,15c2.3,4.8,5.9,8.9,11.1,12.2,3.8,2.3,8.5,4,13.9,5,5.2,1,11.4,1.4,18.7.9,8.1-.6,16.7-2.2,25.3-4.9,8.5-2.6,16.9-6,25-10.1,8.1-4,15.8-8.7,22.9-13.7,7.2-5.1,13.6-10.5,19.1-16,5.7-5.7,10.3-11.5,13.8-17.2,3-4.9,4.9-9.8,5.7-14.4-.6,10.7.9,19.3,4.3,26l.8,1.2c4.9,6.5,11.9,11.4,21,14.8,9.1,3,17.3,3,24.4,0l1.2-.6c9.9-6.1,19.4-15.8,29.2-29.9,9.3-13.8,16.7-28.4,22-43.3,2.4-6.5,4-12.7,4.9-18.5.6,4.2-.2,9.7-2.1,16.2-2.1,6.8-4.8,14.9-7.8,23.5-3.1,7.5-5.8,14.9-8,21.8-2.2,7-4.1,14.1-5.7,21.6-2,12.2,0,22.7,6,31.2l.5.6c6.4,7.5,13.6,12.2,20.9,13.7,2.5.7,4.8,1,6.9,1,8.8,0,13.3-5.4,15-8.1l7.2-11.3-13.3-1.5c-1.4-.2-2.8-.3-3.1-4.6,0-3.7.3-7.8,1-12.1.7-4.3,1.8-9.3,3.3-14.7,1.6-5.7,3.2-11.3,4.9-16.8,1.7-5.5,3.5-11,5.5-16.5,2-6,3.7-11.3,5.2-15.9,1.6-5,2.6-9.3,3.2-13,2.8-15.8.3-28.3-7.6-37.5-7-7.2-16.3-13.8-27.6-19.6-2.9-1.7-5.2-3.1-7.1-4.3-1.6-1-2-1.6-2-1.6l-.4-.5c-.7-.8-1.3-1.6-1.8-2.2l-.6-1.5c-.7-1.3-1.4-2.5-2.3-3.4-.4-.4-.7-.8-1.1-1.2,11.2-.2,21.4,1.2,30.3,3.8,13.8,3.8,13.2,8.3,13,9.8l-2,16.7,14.6-8.5c4.4-2.5,7.2-7.3,8.6-14.5v-.7c.8-6.6-.2-13-2.7-18.7h0ZM465,717.9c-3.1,10.5-5.2,19.9-6.2,28.2.3-10-1.9-18.7-6.5-25.9-4.5-7.1-10.5-13.2-17.6-18-6.7-4.5-14-8.5-21.9-11.6-7.2-2.9-13.9-5.7-20-8.5-5.6-2.5-10.1-5.1-13.4-7.6-1.9-1.4-1.9-2.4-1.8-3.5.4-3.2,2.1-7.3,5.1-11.8,3.4-5.3,7.6-10.7,12.4-16,4.9-5.4,10.3-10.5,16-15.3,5.7-4.7,11.1-8.7,16.1-11.8,3.7-2.3,7-3.9,9.7-4.9.2,2,.1,4.3-.3,6.8-.9,5.3-2.3,10.9-4.2,16.7-2,6.2-4,12.3-6,18.3-2.3,6.7-3.7,12.9-4.3,18.3-.8,6,.2,11.5,3,16.4,2.4,4.3,5.5,7.8,9,10.6,3.8,2.9,7.9,4.7,12.2,5.4,6.8,1.1,11.3-1.5,13.9-3.8l6.5-5.9-5.9-5.9c-.1-.4-.2-1.5,0-3.7.5-4.3,1.9-9.5,4.1-15.4.6-1.8,1.4-3.6,2.1-5.4l.3.2c6.8,5,12.4,2.4,14.5,1.1l.5-.3c.7-.5,1.4-1,2.1-1.5-2.4,5.4-4.7,10.8-6.8,16.2-4.9,12.6-9.3,25.6-12.9,38.7h0ZM531,696.8c-.8,4.9-2.2,9.9-3.9,14.8-1.8,5.1-4.2,10.4-7,15.6-5.9,10.5-11.8,18.8-17.4,24.5-1.3,1.3-2.4,2.2-3.2,2.8-.1-2.9.1-7.8,1.9-15.8,2.9-13.1,8.5-29,16.5-47.5,1.8-4,3.6-8,5.4-11.8.9.9,1.9,1.8,3,2.5,3,2.1,6.1,5.8,4.7,14.8h0Z"/>
      <path class="st0" d="M566.2,667.2c-3.1-1.8-5.6-3.3-7.5-4.6-2-1.3-3.4-2.5-4.3-3.8-.9-1.1-1.7-2-2.3-2.8s-1-1.7-1.2-2.6c-.4-.7-.7-1.2-1.1-1.6-2.2-2.7-4.7-3.4-7.5-2.2-1.8.5-3.4,1.4-4.7,2.7-1.3,1.3-2.7,2.7-4.2,4.3-2.9,3.2-4.8,6.7-5.7,10.2-.5,3.8.5,6.5,3.2,8.1,7.2,5,10,12.8,8.3,23.2-.9,5.4-2.3,10.8-4.3,16.3-2,5.5-4.5,11.1-7.5,16.8-6.3,11.1-12.6,19.9-18.9,26.4-6.5,6.3-11.3,8.3-14.5,6.2-3.6-3.8-3.9-12.8-.8-27,3-13.7,8.7-30,17-49,4.1-9.3,8.4-18.1,12.8-26.4,4.4-8.3,9.1-16.2,14.2-23.7,19.4-2.2,36.2-1.2,50.4,3,13.8,3.8,20.2,10.1,19.1,18.9,2.2-1.3,3.7-4.2,4.6-8.9.5-5.2-.2-10.1-2.2-14.5-1.1-2.5-2.5-4.7-4.2-6.5-1.7-1.8-3.9-3.4-6.6-4.8-11.9-4.8-27.1-7-45.8-6.5.4-.2.6-.4.8-.5.2-.2.5-.5.8-.8,1.8-2.3,1.4-5.4-1.1-9.2-2.5-3.8-5.8-6.6-10-8.6-4.3-2-7.9-1.8-10.8.5-2.5,2.3-5.2,5.4-8.2,9.2-3,3.8-6,8.3-9,13.5-16.3,3.1-30.7,7.3-43.2,12.5,2.2-3.9,4.4-7.8,6.7-11.5,4.2-6.9,8.5-13.2,12.8-18.9s8.2-10,11.6-13.1c2.2-1.6,2.4-3.8.7-6.5-1.7-2.7-4.1-5.2-7.3-7.4-3.1-2.2-6.5-4-10.1-5.1-3.6-1.2-6.2-1.2-7.8-.1-1.1.7-2.6,2.3-4.5,4.8-1.9,2.5-3.8,5.4-5.8,8.6-2,3.2-4,6.6-6.1,10-2.1,3.4-3.7,6.5-5,9.2-5.2-9-11.9-14.4-20.1-16.2-8.2-1.8-16.9-1.2-26.1,1.9-9.3,3.1-18.5,8-27.6,15-9.2,6.9-17.2,14.6-24,23-6.8,8.5-12,17-15.5,25.7-3.5,8.7-4.3,16.5-2.3,23.3,1.4,5,4.4,9.2,8.9,12.7,4.5,3.4,9.6,6.4,15.5,9,5.8,2.6,12,5,18.3,7.3s12.2,4.8,17.5,7.5c5.3,2.8,9.7,6,13.2,9.6,3.5,3.6,5.2,8,5.2,13.2s-2.1,10.1-6.2,15.6-9.4,10.9-15.9,16c-6.5,5.1-13.6,9.7-21.3,13.6-7.7,4-15.2,6.8-22.4,8.6-7.4,1.6-13,1.7-16.8.1-3.9-1.5-6.5-4-7.8-7.5-1.4-3.5-1.7-7.6-.9-12.4s2.1-9.6,4.2-14.4c2.1-4.8,4.6-9.4,7.7-13.7,3-4.3,6.1-7.7,9.2-10.2.9-.5,1.2-1.2.9-2.2-.3-.9-.9-1.7-1.8-2.3-.9-.6-2-1-3.2-1.1-1.3,0-2.3.2-3.2.9-5,4.8-10,10.8-15,17.8-4.9,7-9.2,14.4-12.8,22.1-2.2,4.7-3.9,9.3-5.1,14s-1.9,9.1-1.9,13.3.8,8,2.4,11.5c1.6,3.4,4.2,6.3,7.8,8.6,3,1.8,6.8,3.1,11.3,4,4.5.9,10,1.2,16.4.8,7.5-.5,15.4-2.1,23.4-4.6,8.1-2.5,16-5.7,23.7-9.6,7.7-3.9,15-8.2,21.8-13.1,6.8-4.8,12.8-9.9,18-15.1s9.4-10.4,12.5-15.6c3.1-5.2,4.8-10.1,5-14.5.5-9.2-1.2-16.8-5.1-23-4-6.2-9-11.4-15.2-15.6-6.2-4.2-13-7.8-20.3-10.8-7.4-3-14.1-5.8-20.3-8.6-6.2-2.8-11.2-5.7-15.1-8.6-3.9-3-5.5-6.7-5-11.2.5-4.5,2.6-9.6,6.3-15.4s8.1-11.5,13.3-17.1,10.8-11,16.8-16,11.7-9.2,17.1-12.5c5.4-3.3,10-5.5,13.9-6.5,3.9-1,6.2-.3,7.1,2,1.6,4.3,1.9,9.3.9,15-1,5.7-2.5,11.6-4.5,17.8-2,6.2-4,12.3-6.1,18.5-2.1,6.1-3.4,11.7-3.9,16.7-.5,4.1.1,7.9,2,11.2,1.9,3.3,4.2,6,6.9,8.1,2.7,2.1,5.5,3.3,8.4,3.8,2.9.5,5.2-.1,7-1.8-2-2-2.6-5.4-2-10.4s2.2-10.7,4.6-17.2c2.3-6.3,5.3-13,8.8-20.1,0,0,0,.2,0,.3.3,1.3.9,2.5,1.8,3.8.7,1.4,1.5,2.7,2.3,3.9s1.6,2.2,2.3,3.1c2,1.4,3.7,1.7,5.1.8,7.4-5.4,15.6-9.5,24.8-12.4-6.3,12.2-11.9,24.5-16.7,36.9-4.9,12.4-9.1,25.1-12.7,38-7.5,25.3-8.5,43.4-3,54.2,4,5.2,9.6,9.2,17,11.9,7.2,2.3,13.4,2.4,18.6.3,8.8-5.4,17.7-14.5,26.7-27.5,9-13.3,16-27.1,21-41.5,5-13.8,6.4-25.7,4-35.6,8.6,3.2,13.9,8,15.9,14.3,2.2,6.1,1.7,14.2-1.3,24.2-2.2,7-4.8,15.1-8.1,24.2-3.1,7.4-5.7,14.4-7.8,21.2-2.2,6.7-4,13.5-5.4,20.3-1.6,10.1,0,18.4,4.6,25.1,5.2,6.1,10.8,9.8,16.7,11,5.9,1.6,10.2.5,12.7-3.5-6.5-.7-10-5-10.5-12.9,0-4.1.4-8.6,1.1-13.3.7-4.8,1.9-10,3.5-15.8,1.6-5.8,3.3-11.4,5-17,1.7-5.6,3.5-11.1,5.5-16.7,2-5.9,3.7-11.2,5.1-15.8,1.4-4.6,2.4-8.6,3-12,2.3-13.3.5-23.3-5.4-30.2-6.5-6.6-15-12.7-25.6-18h0Z"/>
    </g>
    <g>
      <path d="M777.4,823.4c-1.3,0-2.8,0-4.3-.3-3.5-.5-7-1.7-10.3-3.5-3.3-1.8-6.5-4.3-9.5-7.5-5.5-5.5-9.4-13.6-11.5-23.9-3.7,3.7-7.4,6.4-11,8l-1,.4c-11.6,3.6-23.9,1.7-36.3-5.6-10.9-5.9-18.2-14.2-21.4-24.8-3.1,3.1-6.3,6.1-9.6,8.8-6.3,5.3-12.6,9.8-18.8,13.3-4.4,2.3-8.9,3.2-13.7,2.6-3.8-.5-7.7-1.5-11.5-3.2-3.5-1.6-6.8-3.4-9.8-5.6-2.9-2-5.3-4.1-7.2-6-4.9-5.2-7.6-11.8-8.1-19.8-.4-6.8.3-14.2,2.2-22,1.8-7.5,4.6-15.3,8.2-23.3,3.5-7.8,7.6-15.3,12-22.3,4.5-7.1,9.3-13.4,14.3-18.7,5.3-5.7,10.3-9.8,15.2-12.6,3.9-2,7.4-3,10.8-3.1,3.2-.2,6.5.4,9.8,1.5,2.9,1,5.9,2.5,8.9,4.3,2.3,1.5,5,3.1,8,4.8,8.7,5.4,10.2,12.5,10.1,16.9,1.4-2.2,2.9-4.2,4.3-6.2,3.1-4.2,6.4-7.8,9.9-11-1.3-2.2-2.4-4.5-3.2-6.9-4.6-11.8,2.2-16.9,4.5-18.2l1.1-.5c26.3-10.4,55.6-15.8,87.2-16.2,3-5.1,5.8-9.5,8.5-13.3,3.7-5.2,7.3-9.2,10.9-12.3l.7-.5c4.5-3,9.7-3.5,14.6-1.3,2.1.8,4,1.9,5.8,3.2,1,.8,2,1.6,3.1,2.5.8.4,1.6.9,2.2,1.6h.1c3.4,2.9,6.2,5.8,8.1,9l.6,1.2c2.2,5.3,1.2,10.7-2.6,14.5h-.1c6.1,1.5,11.4,3.2,16,5.4l.8.4c6.4,3.8,11.2,9.5,14.3,17,2.7,6.7,4.1,13.4,4.1,19.8v.6c-1,14.2-10.2,15.3-12.9,15.3h-9.1l.7-9c.3-3.5-5.5-6.6-9-8.1-4.7-2.2-9.9-3.9-15.7-5.3-4.5-1.1-9.6-2-15-2.6-4.9,8.6-9.5,17.5-13.7,26.7-5,10.8-9.5,22.3-13.6,34-8,23.4-12.5,44.1-13.6,61.6-.4,7.3-.2,19.7,5.8,20.6l17.9,2.7-13.6,11.9c-2.8,2.4-7.3,5-14.2,5h0ZM717.3,762.7c1.3.3,5-1.6,10.2-8.3,3.6-4.6,7.2-9.8,10.7-15.5,1.4-2.2,2.7-4.5,4.1-6.8-4.3,4.2-9.3,7.6-15,9.9l-1.3.4c-1.8.4-3.5.7-5.3,1-2.6.4-5.1.4-7.5-.2-.4,0-.8-.1-1.3-.2-.6,4.5-.4,8.4.7,11.5l.2.7c1.3,5.1,3.4,6.7,4.5,7.4h0ZM638.3,742.3c-.9,3-1.7,6.2-2.1,9.3-.2,1.1-.3,2.1-.4,3,.7-.4,1.5-.9,2.4-1.5,4.1-2.8,8.5-6.4,13.1-10.9-3.8.8-7.2.9-10.2.5-.9-.1-1.8-.3-2.8-.5h0ZM718.8,722.3h0ZM757.1,666c5.7,4,8.8,9.6,8.8,16s0,.7,0,1.1l.2-.5c.9-2,1.7-3.8,2.5-5.4.6-1.3,1.2-2.6,1.6-3.8l.3-.7,5.3-11.2c-6.6,1-12.8,2.5-18.8,4.5h0ZM843,603.9c.3.4.5.8.7,1.2-.2-.4-.4-.8-.7-1.2Z"/>
      <path class="st0" d="M871.5,653.4c-2.3-5.8-5.9-10.1-10.8-12.9-7.4-3.4-17.2-5.8-29.4-7,1.8-2.3,3.6-4.5,5.4-6.5,1.8-2,3.7-3.8,5.7-5.4,1.4-1.4,1.7-3.2.8-5.4-1.4-2.3-3.5-4.6-6.2-6.7-.4-.2-.6-.4-.7-.5,0-.2-.3-.3-.7-.3-1.4-1.2-2.7-2.3-3.9-3.2-1.2-.9-2.5-1.6-3.9-2.2-2.3-1.1-4.6-.9-6.7.5-3.1,2.5-6.2,6.1-9.4,10.6s-6.7,10.2-10.5,16.8c-32.5-.2-62.2,5-88.9,15.6-2.2,1.3-2.4,4-.8,8.1,1.4,4,3.7,7.7,6.7,11.3-5.2,3.6-10.1,8.4-14.5,14.4-4.5,6-8.9,13.3-13.2,22-1.2,2.4-2.3,4.8-3.3,7.2-3,5.3-6.5,10.7-10.7,16.2-5.6,7.4-11.2,14-17,19.8-5.8,5.8-11.3,10.5-16.6,14.2-5.3,3.6-9.4,5.1-12.3,4.6-2-.4-3.1-1.9-3.2-4.7-.2-2.8,0-6,.5-9.6.5-3.6,1.3-7.1,2.4-10.6,1.1-3.5,2.1-6.2,3-8,3.2,1.4,6.2,2.3,8.9,2.7,2.7.4,5.8,0,9.4-.8,5-1.6,9.6-4.8,13.6-9.6,4-4.8,7.5-9.9,10.2-15.4,2.8-5.5,4.9-10.7,6.5-15.8,1.5-5,2.3-8.5,2.3-10.5.4-4.1-1.6-7.5-5.9-10.2-3.1-1.8-5.8-3.5-8.2-5-2.4-1.5-4.8-2.7-7.1-3.5-2.3-.8-4.6-1.2-6.7-1.1-2.2,0-4.5.8-7,2-4.1,2.3-8.5,6-13.2,11-4.7,5-9.1,10.9-13.3,17.5-4.2,6.7-8,13.7-11.5,21.3-3.4,7.5-6,14.8-7.7,21.8-1.7,7-2.4,13.5-2,19.5.4,6,2.2,10.8,5.7,14.4,1.6,1.6,3.7,3.3,6.2,5.1,2.5,1.8,5.3,3.4,8.3,4.7s6.1,2.2,9.2,2.6,5.9-.2,8.6-1.6c5.8-3.2,11.6-7.4,17.5-12.4,5.9-5,11.6-10.6,17-16.7,1.7-2,3.4-4,5-6-.2,4.1-.3,8.2-.1,12.5,1.6,11,7.9,19.4,18.9,25.3,10.4,6.1,20.3,7.7,29.6,4.8,7.2-3.2,15.1-12.4,23.7-27.5-1.6,9.7-2.1,17.6-1.3,23.7,1.6,9.5,4.8,16.7,9.7,21.6,2.3,2.5,4.8,4.5,7.3,5.8,2.5,1.3,5,2.2,7.5,2.6,5,.7,9-.2,11.9-2.7-9.7-1.4-14-11.2-12.9-29.4,1.1-18.3,5.8-39.6,14-63.9,4.1-12,8.8-23.6,13.9-34.8s10.7-21.8,16.8-32.1c7.9.7,15,1.8,21.4,3.4,6.4,1.5,12.1,3.5,17.1,5.8,9.9,4.3,14.5,9.8,14,16.4,2.7,0,4.2-2.5,4.6-7.5,0-5.4-1.2-11-3.5-16.7h0ZM641.3,714.1c1.9-3.4,4.1-7.1,6.7-11,2.6-4,5.3-7.7,8.1-11.2s5.1-5.9,6.9-7.1c-.4,3.1-1.2,6.7-2.6,11s-3.1,8.4-5.4,12.3-4.8,7-7.5,9.6-5.8,3.5-9,3c0-.9.9-3,2.8-6.5h0ZM715.5,711.1c1.6-2.5,3.3-5.1,5.1-7.8,1.8-2.7,3.7-5.3,5.7-7.8,3.8-5.4,6.9-9.1,9.4-11-.5,4.8-2,10.1-4.3,15.6-.9,3.1-2.1,5.8-3.6,8.3-1.5,2.5-3.2,4.8-5,7-3.6,4.1-7.6,5.9-12.1,5.4,0-1.3,1.6-4.5,4.8-9.7h0ZM784,664c-2,4.1-4,8.3-5.9,12.4-.5,1.4-1.2,2.9-1.9,4.5-.7,1.5-1.5,3.3-2.4,5.3-2.5,5.6-5.2,11.5-8,17.7-2.8,6.2-6,13-9.6,20.3-3.6,7-7.2,13.5-10.9,19.4-3.7,5.9-7.4,11.3-11.2,16.2-7.5,9.7-14.3,13.3-20.2,10.8-4.5-2.3-7.5-6.6-9.2-12.9-2.3-6.6-2-15,1.1-25.1,1.6.7,3.1,1.3,4.6,1.8,1.4.5,2.9.8,4.3.9,1.4.4,3,.4,4.6.1,1.6-.3,3.2-.6,4.8-.9,7.2-2.9,13-7.7,17.5-14.5,2.5-3.6,4.7-7.2,6.6-10.8,1.9-3.6,3.5-7.2,5-10.8,1.4-3.8,2.5-7,3.2-9.7.7-2.7,1.1-4.8,1.1-6.5,0-4-2.1-7.2-6.2-9.7-1.4-1.2-3-2.2-4.6-3-1.4-.9-2.8-1.8-4.2-2.6s-2.7-1.5-3.9-2c14.7-7.7,31.8-12,51.2-12.9-2,4-4,8-5.9,12.1h0Z"/>
    </g>
  </g>
</svg>