<?xml version="1.0" encoding="UTF-8"?>
<svg id="Capa_1" data-name="Capa 1" xmlns="http://www.w3.org/2000/svg" xmlns:xlink="http://www.w3.org/1999/xlink" viewBox="0 0 1244.96 1246.23">
  <defs>
    <style>
      .cls-1 {
        fill: none;
      }

      .cls-2 {
        fill: #131417;
      }

      .cls-3 {
        fill: #d3b672;
      }

      .cls-4 {
        fill: #fff;
      }

      .cls-5 {
        fill: #f1e5b6;
      }

      .cls-6 {
        fill: #ffd600;
      }

      .cls-7 {
        clip-path: url(#clippath);
      }
    </style>
    <clipPath id="clippath">
      <path class="cls-1" d="M474.56,440.45c-7.8-8.16-6.12-20.22-3.91-27.34.82-2.64,2.26-5.14,3.12-7.81.98-3.03,2.9-8.8,3.12-10.16.08-.49,1.16-3.78.43-7.08-1.21-5.53-3.51-6.22-8.67-4.67-15.85,4.76-18.03,32.83-21.67,46.3-5.02,18.61-16.32,40-38.11,40.79-1.31.93-1.1,8-1.51,9.82-24.81,110.55-27.75,203.71,1,314.22,7.02,26.98,17.37,69.13,31.81,92.02.19.31,25.2,41.7,46.3,54.86,17.84,11.13,50.07,26.01,66.6,27.94,30.8,3.6,66.59,4.48,97.64,3.13,45.07-1.97,86.91-17.24,123.05-43.74.29-.21,21.2-17.03,25.02-21.46,8.89-10.3,18.54-23.27,20.1-36.93,2.17-19.06-7.84-39.37-13.88-56.82-33.7-97.34-26.72-177.15-3.11-275.4.92-3.83,3.61-8.79,3.11-12.82-.26-2.13-6.2-9.69-7.61-13.54-9.82-26.73,12.95-53.67,8.39-77.92-1.32-7.02-11.11-1.39-14.41,1.17-16.7,12.95-8.71,35.61-11.44,53.4-2.91,18.96-16.12,37.01-37.41,29.39-3.12-1.99-5.91-2.78-9-5.45-11.51-9.93-12.07-28.3-8.97-42.2.56-2.51,2.92-7.2,3.91-10.16,3.5-10.54,8.36-20.96,10.16-32.03.3-1.84.68-3.59.78-5.47.43-7.68.08-12.84-3.91-19.53-1.19-2-3.54-5.55-5.67-6.44-13.03-5.44-30.29,10.15-42.35,14.28-7.57,2.6-14.33,4.22-21.72,3.28-10.49-1.33-19.48-5.77-23.24-9.94-9.73-10.81-14.35-26.16-33.06-16.67-15.53,7.88-21.98,33.57-23.86,49.57-3.66,31.16,7.48,62.78-5.43,93-8.51,19.91-28.12,34.4-50.13,24.47-12.68-5.72-19.22-21.4-21.09-34.37-.14-.98.12-2.13,0-3.12-.12-1,.14-2.14,0-3.12.18-4.81,0-10.94.78-15.62,2.47-14.65,11.97-36.09,17.97-50,.44-1.02,7.77-16.49,8.59-18.75,2.05-5.64,6.03-19.09,6.25-20.31.31-1.75,2.38-9.65,2.34-10.16,3.14-10.71-1.26-34.35-16.67-24.09-12.98,8.66-9.29,31.42-11.66,44.59-3.94,21.94-25.6,37.28-41.99,20.9Z"/>
    </clipPath>
  </defs>
  <g>
    <g>
      <path class="cls-4" d="M610.65,1009.24c-25.03,0-49.02-2.1-69.66-6.11-16.79-3.26-32.9-8.81-47.89-16.49-14.49-7.42-28.01-16.88-40.17-28.09-11.81-10.89-22.37-23.47-31.4-37.38-8.86-13.66-16.24-28.61-21.95-44.45-11.22-31.15-21.26-63.57-28.27-91.31-13.16-52.08-19.15-106.45-17.82-161.59,1.21-50.24,8.48-100.16,21.62-148.56,0,0,0,0,0,0-5.77-6.56-9.83-16.44-10.61-25.77-.85-10.26,1.01-20.05,5.71-29.93,3.63-7.62,8.46-14.22,12.72-20.05,4.03-5.51,7.84-10.71,9.88-15.69,3.16-7.71,4.78-16.78,6.5-26.38,2.06-11.52,4.19-23.44,9.2-35.44,7.47-17.89,18.47-33.11,32.69-45.24,12.38-10.57,27.53-19.03,45.04-25.15,14.4-5.04,30.51-8.61,49.24-10.93,17.65-2.19,35.09-2.92,48.31-3.31,43.02-1.27,82.81.72,118.28,5.92,44.92,6.59,83.62,18.46,115.05,35.27,2.43,1.3,4.8,2.55,7.09,3.76,20.62,10.87,38.43,20.27,54.25,43.51h0c7.41,10.9,11.61,22.13,12.81,34.33,1.03,10.36-.09,20.7-2.08,33.04-2.3,14.29-7.75,26.62-13.02,38.55-5.34,12.09-10.38,23.51-11.05,35.18-.22,3.74.4,8.23,1.05,12.97.85,6.18,1.81,13.19,1.31,20.81-1.07,16.12-7.98,30.53-18.98,39.54-4.66,3.82-9.92,6.58-15.63,8.2-.06.02-.12.03-.18.05-7.59,33.83-15.1,71.72-17.52,109.23-2.65,41.15,2.64,85.86,16.67,140.71,1.89,7.39,4.61,14.47,7.49,21.97,2.75,7.17,5.6,14.58,7.77,22.51,3.54,12.92,4.3,25.33,2.31,37.93-1.79,11.34-5.8,22.57-12.26,34.35-12.2,22.25-31.66,41.11-57.85,56.05-22.14,12.63-48.83,22.34-79.33,28.87-26.34,5.63-55.52,8.78-84.36,9.1-1.65.02-3.29.03-4.93.03ZM404.2,448.93c.06.05.12.09.18.13,1.24.89,2.79,2,4.27,3.29,6.39,5.55,7.91,11.69,8.06,15.86l.11,3.15-.89,3.03c-14.29,48.83-22.16,99.42-23.4,150.38-1.25,51.6,4.35,102.43,16.64,151.08,6.7,26.54,16.34,57.66,27.15,87.64,4.69,13.03,10.74,25.28,17.97,36.43,7.25,11.18,15.7,21.25,25.11,29.92,9.56,8.82,20.16,16.24,31.5,22.05,11.72,6.01,24.34,10.35,37.52,12.91,19.44,3.78,42.52,5.63,66.72,5.36,26.29-.29,52.78-3.14,76.62-8.23,26.57-5.68,49.5-13.96,68.15-24.6,19.83-11.31,34.28-25.07,42.95-40.9,8.58-15.66,10.54-28.57,6.53-43.17-1.66-6.07-4.05-12.27-6.57-18.84-3.15-8.21-6.41-16.7-8.86-26.29-15.07-58.95-20.73-107.54-17.8-152.9,2.94-45.61,12.68-90.64,21.58-129.27l3.99-17.32,17.62,2.35c2.45.33,3.55-.26,4.38-.94,2.09-1.71,4.37-6.05,4.75-11.89.24-3.66-.38-8.16-1.03-12.92-.84-6.09-1.79-13-1.35-20.54,1.08-18.73,8.11-34.66,14.32-48.71,4.47-10.11,8.68-19.67,10.19-28.99,1.55-9.6,2.38-16.79,1.77-22.97-.57-5.77-2.44-10.62-6.24-16.21-10.34-15.2-20.93-20.78-40.17-30.93-2.34-1.24-4.77-2.51-7.3-3.87-27.44-14.68-61.85-25.13-102.29-31.07-33.21-4.87-70.71-6.73-111.45-5.53-12.37.37-28.63,1.04-44.67,3.03-15.94,1.97-29.39,4.93-41.14,9.04-13.11,4.58-23.76,10.47-32.58,17.99-9.64,8.23-16.84,18.23-22,30.58-3.36,8.04-5.03,17.37-6.8,27.25-2,11.19-4.07,22.76-8.8,34.31-3.85,9.39-9.51,17.13-14.51,23.96-7.45,10.18-11.64,16.29-11.02,23.66.06.75.43,1.9.79,2.69Z"/>
      <path class="cls-2" d="M862.3,336.81c11.87,17.45,11,32.18,7.6,53.27-4.21,26.07-22.68,47.93-24.29,75.71-.65,11.36,3.11,22.42,2.37,33.62-1.14,17.2-12.16,33.44-31.21,30.91-9.54,41.42-18.37,83.54-21.12,126.14-3.19,49.55,5.01,98.97,17.24,146.81,4.1,16.05,11.27,29.94,15.35,44.81,5.73,20.87,1.96,39.11-8.24,57.72-44.27,80.77-195.01,93.74-275.29,78.15-61.21-11.88-105.99-56.21-126.76-113.86-10.17-28.24-20.36-60.39-27.71-89.48-25.75-101.91-22.52-211.07,6.94-311.72-.06-1.63-5.82-4.72-7.42-6.54-3.22-3.67-5.41-9.65-5.82-14.49-1.96-23.61,18.86-36.95,26.93-56.64,7.99-19.51,7.38-41.9,15.65-61.69,26.56-63.56,97.24-70.84,157.83-72.63,72.63-2.15,159.16,4.45,223.54,38.89,23.82,12.75,39.81,19.57,54.4,41.03Z"/>
    </g>
    <path class="cls-6" d="M435.5,333.42c-2.52,6.19-3.23,11.58-4.69,17.97-4.48,19.59-6.28,38.45-17.17,55.88-7.53,12.06-19.43,21.89-19.61,37.46-.15,13.57,11.08,20.12,23.13,13.71,5.34-2.84,8.15-6.96,11.3-11.74,13.6-20.64,9.84-52.43,28.96-66.74,7.26-5.43,20.65-9.09,26.03.43,7.74,13.72-3.74,28.46-5.58,41.11-2.4,16.49,16.78,21.85,25.47,8.28,11.19-17.48-.95-46.88,19.71-60.76,12.35-8.29,25.08-3.1,28.62,11.11,11.75,47.15-45.58,103.17-33.14,146.41,6.45,22.43,30.05,31.23,45.84,11.92,22.31-27.29,8.52-68.32,11.75-100.75,2.47-24.75,16.64-70.35,49.85-62.36,12.12,2.91,17.93,17.83,28.02,24.32,29.71,19.11,63.06-37.3,87.3-5.27,22.86,30.2-14.03,65.3-9.65,98.71,2.06,15.73,23.71,24.88,33.87,10.56,12.01-16.93,2.82-43.21,7.07-63.24,3.25-15.31,14.55-36.57,33.21-32.01.64.85-7.03,2.83-8.5,3.6-5.79,3.05-12.83,10.98-14.15,17.48.56.62,7.23-5.22,8.55-5.9,7.38-3.77,18.28-4.08,22.06,4.59,10.04,23.04-14.84,54.93-6.43,80.65,3.72,11.38,16.24,16.19,24.26,6.21,10.86-13.53,2.93-31.3,3.88-46.9,1.85-30.69,20.09-53.37,25.02-82.01,1.5-8.71,2.02-22.84-5.38-36.6-9.78-18.17-35.64-33.27-70.97-49.52-75.12-34.54-178.74-41.28-260.51-28.09-38.71,6.24-72.59,23.3-88.12,61.49Z"/>
    <path class="cls-5" d="M474.56,440.45c-7.8-8.16-6.12-20.22-3.91-27.34.82-2.64,2.26-5.14,3.12-7.81.98-3.03,2.9-8.8,3.12-10.16.08-.49,1.16-3.78.43-7.08-1.21-5.53-3.51-6.22-8.67-4.67-15.85,4.76-18.03,32.83-21.67,46.3-5.02,18.61-16.32,40-38.11,40.79-1.31.93-1.1,8-1.51,9.82-24.81,110.55-27.75,203.71,1,314.22,7.02,26.98,17.37,69.13,31.81,92.02.19.31,25.2,41.7,46.3,54.86,17.84,11.13,50.07,26.01,66.6,27.94,30.8,3.6,66.59,4.48,97.64,3.13,45.07-1.97,86.91-17.24,123.05-43.74.29-.21,21.2-17.03,25.02-21.46,8.89-10.3,18.54-23.27,20.1-36.93,2.17-19.06-7.84-39.37-13.88-56.82-33.7-97.34-26.72-177.15-3.11-275.4.92-3.83,3.61-8.79,3.11-12.82-.26-2.13-6.2-9.69-7.61-13.54-9.82-26.73,12.95-53.67,8.39-77.92-1.32-7.02-11.11-1.39-14.41,1.17-16.7,12.95-8.71,35.61-11.44,53.4-2.91,18.96-16.12,37.01-37.41,29.39-3.12-1.99-5.91-2.78-9-5.45-11.51-9.93-12.07-28.3-8.97-42.2.56-2.51,2.92-7.2,3.91-10.16,3.5-10.54,8.36-20.96,10.16-32.03.3-1.84.68-3.59.78-5.47.43-7.68.08-12.84-3.91-19.53-1.19-2-3.54-5.55-5.67-6.44-13.03-5.44-30.29,10.15-42.35,14.28-7.57,2.6-14.33,4.22-21.72,3.28-10.49-1.33-19.48-5.77-23.24-9.94-9.73-10.81-14.35-26.16-33.06-16.67-15.53,7.88-21.98,33.57-23.86,49.57-3.66,31.16,7.48,62.78-5.43,93-8.51,19.91-28.12,34.4-50.13,24.47-12.68-5.72-19.22-21.4-21.09-34.37-.14-.98.12-2.13,0-3.12-.12-1,.14-2.14,0-3.12.18-4.81,0-10.94.78-15.62,2.47-14.65,11.97-36.09,17.97-50,.44-1.02,7.77-16.49,8.59-18.75,2.05-5.64,6.03-19.09,6.25-20.31.31-1.75,2.38-9.65,2.34-10.16,3.14-10.71-1.26-34.35-16.67-24.09-12.98,8.66-9.29,31.42-11.66,44.59-3.94,21.94-25.6,37.28-41.99,20.9Z"/>
  </g>
  <g>
    <path class="cls-3" d="M797.46,510.78c-9.82-26.73,13.56-52.75,9-77-1.32-7.02-11.72-2.31-15.03.25-16.7,12.95-9.35,35.4-11.44,53.4-2.21,19.06-16.19,37.98-37.47,30.35.08.05,2.47,2.01,3.49,2.56,4.37,2.37,6.47,2.4,8.9,2.54,1.24.07,2.83-.07,4.47-.31,5.57-.84,10.66-3.65,14.35-7.9,3.63-4.18,8.16-9.84,10.26-14.25l2.07,13.15c.79,2.72,3.27,10.7,6.52,14.97,2.42,3.19,5.98,7.54,9.57,8.59,0,0,4.68-10.46,2.33-13.75-1.25-1.75-5.61-8.76-7.03-12.61Z"/>
    <path class="cls-3" d="M728.27,395.82c-7.42-1.94-16.88,1.55-35.19,11.82-7.05,3.95-14.98,6.09-23.06,6.1-1.26,0-2.56-.04-3.91-.13-5.89-.4-18.45-4.17-23.52-9.48-9.37-9.81-12.99-25.89-32.63-17.29-15.96,6.99-22.41,34.18-24.29,50.19-3.66,31.17,7.48,62.78-5.43,93-1.99,4.66-13.85,25.71-33.38,27.58-6.93.66-12.84-1.31-16.76-3.11,1.68,1.22,3.96,2.68,6.82,4.03,3.28,1.54,5.92,2.27,6.62,2.46,4.29,1.15,7.72,1.24,8.7,1.26,4.74.07,8.4-.85,10.14-1.37.63-.19,3.41-1.03,6.8-2.86,1.18-.63,4.47-2.49,8.44-6.11,2.48-2.27,9.31-8.95,13.56-19.53,1.86-4.64,4.57-11.78,5.72-24.73,1.53-17.28-5.13-42.23-1.17-73.06.47-3.62,4.3-22.19,10.17-30.47,4.89-6.9,14.14-7.8,17.89-7.01,7.6,1.6,16.31,17.72,29.75,20.69,6.91,1.53,25.35,5.84,43.49-2.23,14.23-6.33,19.39-10.33,29.56-14.25,3.67-1.41,8.96,1.67,8.96,1.67-.68-1.67-3.63-6.24-7.27-7.19Z"/>
    <path class="cls-3" d="M477.6,387.88c-1.58-5.66-4.27-6.01-9.08-4.55-15.84,4.8-18.03,32.83-21.67,46.3-5.02,18.61-16.32,40-38.11,40.79-1.31.93-.95,8.05-1.36,9.88,3.73,1.53,9.63,3.24,16.39,1.78,12.46-2.68,19.17-14.57,23.44-22.4,10.77-19.74,8.89-28.78,16.29-49.35,4.17-11.6,13.78-16.81,13.78-16.81.59-2.01.99-3.26.32-5.64Z"/>
    <path class="cls-3" d="M543.75,393.84c.12.37,1.18,5.2,1.09,5.48,3.58-11.29-1.38-34.95-16.78-24.68-12.98,8.66-9.39,31.4-11.66,44.59-3.82,22.2-25.82,38.46-43.34,19.45.19.32,1.6,6.73,9.05,11.63,5.41,3.57,11.32,2.82,12.61,2.71,15.38-1.23,24.09-18.39,25.11-20.47,1.68-3.44,2.33-5.99,3.59-10.99,4.24-16.85,2.12-23.45,6.91-29.81,4-5.31,11.5-4.03,13.43,2.09Z"/>
  </g>
  <g class="cls-7">
    <path class="cls-3" d="M729.12,522.48c2.42,1.03,4.83,2.06,7.24,3.08,19.44,8.23,39.65,16.44,59.4,23.78,2.37,1.04,4.07-1.8,2.66-3.69-.27-.36-.64-.62-1.03-.75-12.01-4.53-23.99-9.17-35.84-14.15-10.04-4.14-20.15-8.47-30.15-12.86,1.66-3.37,3.56-7.32,5.05-10.41.21-.4.35-.85.37-1.33.01-.58-.17-1.23-.57-1.67-.21-.24-.47-.42-.72-.54-.89-.43-2.05-.18-2.66.67-.09.11-.2.34-.23.39,0,0-.18.37-.18.37-1.71,3.58-3.44,7.14-5.19,10.7-.4-.18-.79-.35-1.19-.52-22.03-9.84-43.9-20.12-65.84-30.27,9.03-14.76,18-29.56,26.93-44.38,4.29,2.02,8.46,4.03,12.15,5.89,8.73,4.35,17.93,9.12,26.57,13.66.28.15.55.3.89.38.85.18,1.71-.2,2.21-.99.53-.99.5-2.15-.26-3-.14-.16-.32-.28-.5-.38l-.24-.13s-.85-.45-.85-.45c-10.56-5.6-24.38-12.97-37.13-19.69,4.48-7.44,8.96-14.89,13.43-22.34,3.05-5.13,7.47-12.57,10.45-17.68.38-.8.32-1.78-.17-2.51-.4-.58-1.04-.96-1.72-.97-.66-.03-1.35.28-1.78.83-.1.12-.22.33-.24.36l-.13.21-.25.42-.5.85-1,1.7-2,3.39s-4.02,6.77-4.02,6.77c-5.32,8.97-10.68,17.93-16.07,26.85-4.77-2.51-9.31-4.88-13.39-6.99-13.73-7.04-27.62-13.82-41.91-19.46-10.45-4.12-21.82-8.19-32.36-12.06l-.45-.17-.06-.02c-.54-.19-1.17.08-1.46.6-.44.72-.03,1.79.72,2.02,12.2,4.47,23.88,10.44,35.47,16.46,2.35,1.18,5.04,2.59,7.37,3.78l.34.17.14.07h0s.06.04.09.05c-.51,1.21-.35.86,0,0,2.24,1.16,4.5,2.3,6.76,3.42,6.77,3.43,13.88,6.83,20.75,10.05,4.58,2.12,9.81,4.52,15.03,6.96-8.98,14.82-18.06,29.58-27.24,44.27-30.77-14.21-61.68-28.07-93.3-39.97-14.99-5.71-30.15-11.3-45.27-16.58l-1.14-.4-.28-.1c-.34-.12-.75-.06-1.05.14-.43.25-.66.83-.59,1.34.06.52.42.98.88,1.13,44.57,15.47,89.48,38.68,132.68,58.11,1.49.68,2.99,1.36,4.49,2.04-10.02,15.96-20.17,31.82-30.45,47.59-17.65-8.84-35.18-17.58-51.95-25.62-30.13-14.48-60.82-27.66-91.89-39.64,6.12-11.53,12.72-24.01,18.32-34.72.09-.17.67-1.29.74-1.42.5-.82.52-2.08-.11-2.86-.99-1.27-3.04-1.02-3.69.52l-.15.28s-.3.56-.3.56c-1,1.88-3.2,6.04-4.18,7.88-2.18,4.21-5.01,9.28-7.27,13.44-1.23,2.23-2.4,4.49-3.66,6.7-1.41,2.46-2.9,5.15-4.41,7.82-.95-.36-1.9-.73-2.86-1.09-6.8-2.57-14.47-5.39-21.33-7.82-.51-.18-1.68-.6-2.17-.78-.6-.26-1.36.09-1.61.73-.3.72.11,1.63.79,1.85,8.6,3.05,17.16,6.31,25.66,9.75-.98,1.72-1.96,3.4-2.91,4.97-.45.76-5.49,9.26-5.82,9.82-2.31,3.73-5.03,8.13-7.3,11.87-2.66,4.31-5.43,8.54-8.1,12.85-2.62,4.14-5.62,8.58-8.25,12.75-.36.57-.79,1.25-1.23,1.93-4.6-1.81-9.22-3.57-13.85-5.28-1.5-.53-6.24-2.29-7.63-2.75-.56-.1-1.17.25-1.38.82-.28.72.12,1.61.8,1.83,6.78,2.43,13.66,5.05,20.45,7.82-3.48,5.26-7,10.82-10.55,16.07-.03-.02-.04-.02,0,0,0,0,0,0,0,0,0,0-.05.06-.05.06,0,0,0,0,0,0-.11.16-.21.32-.32.47-4.21,6.23-8.82,12.49-13.36,18.42-.85,1.11-1.78,2.24-2.65,3.36-1.02,1.53.83,2.95,1.86,1.84,4.09-5.2,8.59-10.48,12.74-15.64,2.45-3.05,5.56-6.69,8-9.77,3.18-4.06,6.68-8.35,9.78-12.57,2.31.98,4.6,1.97,6.87,2.97,3.23,1.4,9.34,4.2,12.52,5.69,4.04,1.93,8.28,3.94,12.3,5.95,0,0,0,0,0,.01-.14.36-.19.51.02,0l.16.08.33.16.65.33,1.3.65c5.74,2.9,12.39,6.39,18.07,9.42,2.47,1.33,4.95,2.68,7.43,4.04-13.54,19.7-27.3,39.26-41.17,58.65-15.15-8.82-30.63-17.76-45.21-26.05-1.33-.76-5.66-3.21-6.89-3.91-.55-.33-1.31-.23-1.69.35-.41.62-.28,1.61.37,1.98,17.07,9.62,34.23,19.98,51.29,30.6-1.83,2.56-3.67,5.12-5.51,7.67-1.44,2.02-4.18,5.85-5.59,7.82l-.4.56-.2.28-.1.14c-1.06-.91-.76-.63-.02.03,0,0,0,0,0,0-.07-.05-.07-.04,0,.01-3.42,4.78-6.8,9.59-10.21,14.39-1.28,1.83-3.83,5.42-5.14,7.24-2.66,3.74-5.35,7.47-8.06,11.17-4.27-2.16-8.52-4.27-12.72-6.33-1.58-.77-5.91-2.88-7.43-3.62-.52-.28-1.18-.13-1.55.36-.43.62-.35,1.67.35,2.03,6.61,3.17,13.16,6.46,19.67,9.85-3.74,5.05-7.53,10.06-11.4,15-1.13,1.46-2.29,2.9-3.44,4.35-.39.52-.41,1.42.11,1.88.48.46,1.31.5,1.75-.04,5.15-6.48,10.54-13.03,15.98-19.62,24.01,12.63,47.42,26.59,70.58,40.97-10.98,14.29-22.14,28.43-33.54,42.33-14.35-8.73-28.89-17.12-43.65-25.06-1.48-.79-6.03-3.22-7.4-3.96-.39-.19-.85-.22-1.24,0-.27.15-.46.43-.55.72-.19.59-.01,1.34.54,1.63,17,9.02,33.66,19.03,49.82,29.68-5.93,7.2-11.93,14.33-18,21.38-4.66,5.4-10.63,12.21-15.37,17.54l-.32.36c-.39.45-.5,1.14-.2,1.68.4.71,1.42.87,1.97.26,11.62-13.05,23.16-26.2,34.58-39.48,8.94,5.92,18.1,12.23,26.82,18.38,17.65,12.56,35.26,25.23,52.93,37.83-.37.52-.73,1.03-1.05,1.48-.2.28-.62.86-.82,1.14-.66-.52-.48-.34-.04.07-.42.58-3.65,5-3.65,5-2.13,2.79-5.48,7.29-7.58,9.99-7.91,10.19-16.2,20.13-24.74,29.78-12.93-9.58-25.84-19.3-38.56-29.02-10.75-8.28-21.52-16.91-31.95-25.7l-.18-.15c-.5-.48-1.31-.37-1.74.16-.24.31-.36.7-.31,1.11.05.38.31.73.57.94,21.12,17.75,41.84,36.75,63.37,53.94,1.49,1.18,2.98,2.35,4.49,3.53-2.47,2.74-4.96,5.46-7.47,8.16-4.54,4.84-9.9,10.45-14.53,15.17l-.27.28c-.35.31-.52.82-.45,1.3.08.67.69,1.15,1.3,1.12.3,0,.6-.15.82-.37,7.71-7.85,15.35-15.8,22.87-23.89,9.2,7.1,18.69,14.03,28.19,20.48,12.6,8.61,26,16.89,39.12,24.74-6.65,10.11-13.21,20.29-19.63,30.54l-.83,1.32-.41.66s-.21.33-.21.33c-.07.11-.16.3-.19.44-.15.63.18,1.35.74,1.58.54.26,1.25,0,1.56-.54,6.93-11.11,14.16-22.01,21.6-32.74.49.29.98.58,1.46.87,14.43,8.45,29.65,17.08,44.51,24.61,2.66,1.37,8.76,4.46,11.35,5.7,0,0,.46.23.46.23.44.18.72.15,1.12.09.75-.15,1.41-.73,1.67-1.52.07-.25.13-.49.13-.77.03-.5-.17-1.16-.52-1.58-.28-.36-.64-.58-1.02-.76,0,0-.87-.43-.87-.43-1.61-.8-3.38-1.66-5.01-2.48,0,0,0,0,0,0h0s-.05-.03-.07-.04c.08-.21.16-.42-.02,0-17.08-8.68-33.81-18.11-50.16-28.25,8.35-11.91,16.93-23.63,25.61-35.23,3.36-4.47,6.73-8.93,10.09-13.4,23.67,15.9,47.66,31.23,72.17,45.55-5.49,8.67-11.07,17.28-16.8,25.56-.82,1.19-2.51,3.63-3.31,4.76l-.24.34-.12.17s-.04.05-.06.09c-.4.64-.15,1.57.48,1.92.27.15.62.21.93.1.31-.1.56-.32.74-.58,7.11-10.14,14.54-20.2,21.92-30.3.72.42,1.44.83,2.16,1.25,5.78,3.31,12.02,6.76,17.9,9.92,4.26,2.27,9.93,5.24,14.25,7.42l.65.33.33.17c.14.07.33.15.57.21.89.21,1.91-.27,2.35-1.17.4-.85.39-1.88-.17-2.67-.18-.25-.44-.48-.72-.62-11.66-5.9-23.14-12.17-34.48-18.74,6.03-8.28,12-16.59,17.7-25,7.41-10.94,14.61-22.29,21.42-33.66.29-.49.59-.98.88-1.48,13.1,6.05,26.33,11.8,39.71,17.19,5.54,2.19,13.31,5.14,18.96,7.18.28.1,1.17.43,1.43.52l.24.09s.09.03.2.06c.99.26,2.03-.27,2.5-1.23.24-.53.3-1.1.16-1.68-.16-.74-.71-1.4-1.36-1.66-.09-.04-.15-.06-.18-.07l-.12-.04-.24-.09-.47-.17s-1.9-.7-1.9-.7c-12.59-4.56-25.23-9.68-37.53-15.01-6.34-2.77-12.65-5.64-18.93-8.57,4.46-7.58,9.34-16.03,13.43-23.13,5.84-10.08,11.94-20.47,18.03-30.77,6.09,2.57,12.89,5.32,18.83,7.68l.23.09.11.05c.72.3,1.59.12,2.16-.4.83-.68,1.06-2.09.5-3.06-.26-.48-.67-.84-1.13-1.04l-.27-.11s-.91-.36-.91-.36c-5.53-2.19-11.37-4.58-17.07-6.98,3.63-6.13,7.25-12.22,10.8-18.18.18-.31.57-.96.74-1.25.72-1.13.34-2.79-.79-3.39-.97-.57-2.36-.19-2.92.86-3.95,6.61-8.02,13.37-12.11,20.15-1.34-.57-2.67-1.15-3.97-1.71-8.14-3.53-16.99-7.53-25.02-11.3-4.33-2.03-8.98-4.22-13.3-6.31l-.44-.21-.22-.11s-.03-.01-.05-.03h0s0,0,0,0h0s0,0,0,0c-.01,0-.03-.01-.04-.02.11-.31.21-.61-.04-.02-5.03-2.45-15.06-7.43-20-9.95-2.14-1.09-4.27-2.19-6.4-3.29,2.47-3.79,4.91-7.6,7.33-11.42,10.97-17.24,21.62-34.79,31.65-52.73.95.46,1.9.92,2.84,1.38,8.58,4.15,17.71,8.39,26.43,12.18l5.34,2.31.33.14s.05.02.14.05c1.1.38,2.34-.32,2.71-1.47.02-.07.05-.16.06-.22l.04-.18c.08-.5.01-1.1-.25-1.59-.31-.56-.72-.89-1.22-1.11-9.37-4.02-19.08-8.42-28.3-12.85-1.71-.82-3.42-1.66-5.13-2.49.32-.79.44-1.12-.03-.02l-.16-.08-.32-.16s-.1-.05-.17-.08c10.25-18.58,19.84-37.58,28.43-57.09.89-2.08,2.27-5.27,3.16-7.33.09-.22.39-.9.47-1.1l.08-.18c.3-.67.19-1.56-.16-2.14-.34-.52-.66-.85-1.27-1.03-.23-.07-.46-.1-.72-.09-.38,0-.85.17-1.18.44-.29.21-.58.62-.71.91l-.06.14-.05.11-.08.18-.16.37-.31.73-.31.73-.16.37s-.02.04-.04.09c0,0,0,0,0,0-.01.03-.02.06-.04.09-.77-.36-.55-.24-.01.03-3.28,7.64-6.73,15.17-10.3,22.66-6.51,13.55-13.5,26.9-20.84,40-23.26-11.55-45.96-24.25-68.43-37.42,13.26-21.76,26.19-43.74,38.65-66,17.43,7.9,34.94,15.56,52.57,22.91,4.93,2.03,10.87,4.4,15.84,6.36,1.32.51,6.09,2.35,7.3,2.82l.17.06s.19.07.32.1c.76.15,1.51-.13,2.04-.72.71-.8.79-2.1.18-3.01-.21-.33-.51-.59-.84-.77-.1-.06-.23-.11-.31-.14-19.43-7.42-38.59-15.61-57.59-24.19-5.58-2.52-11.43-5.21-17.18-7.89,5.82-10.46,11.53-20.98,17.13-31.58,3.55-6.74,7.46-14.4,10.95-21.4ZM571.65,914.16c-7.64-4.78-15.57-10.01-22.98-15.03-8.99-6.09-18.44-12.76-27.28-19.1-5.19-3.78-10.38-7.59-15.57-11.43,10.17-11.1,20.07-22.47,29.54-34.24,3.05-3.72,6.61-8.37,9.67-12.35,20.09,14.3,40.25,28.47,60.65,42.25-2.9,4.13-5.78,8.26-8.64,12.41-8.56,12.38-17.04,24.88-25.38,37.49ZM498.94,718.54c5.33,3.32,10.65,6.66,15.96,10.02,20.13,12.72,40.31,25.44,60.61,37.94-7.23,11.28-14.4,22.59-21.47,33.97-2.7,4.39-5.89,9.03-8.93,13.42-26.49-18.78-53.37-36.93-80.93-53.81,11.74-13.7,23.34-27.53,34.75-41.54ZM426.21,672.83c10.38-12.54,20.9-25.22,30.37-37.82,2.42-3.18,4.81-6.41,7.17-9.67,17.18,10.77,34.24,21.75,50.97,32.46,5.37,3.44,10.75,6.86,16.15,10.26-1.84,2.5-3.68,5-5.52,7.49-8.99,12.19-18.06,24.34-27.27,36.38-12.13-7.03-24.34-13.9-36.66-20.54-11.43-6.22-23.36-12.53-35.21-18.56ZM443.73,528.52c1.9-2.62,4.14-5.8,5.9-8.31,2.56-3.87,5.13-7.84,7.61-11.77,3.03-4.87,5.86-9.89,8.73-14.87,1.89-3.48,4.5-8.32,6.4-11.81,1.33-2.49,2.7-5.07,4.11-7.72,7.47,3.09,14.89,6.31,22.24,9.65,10.28,4.65,20.76,9.63,30.91,14.58,29.51,14.55,58.99,29.27,88.6,43.7-12.39,18.92-24.98,37.69-37.77,56.29-11.16-6.65-22.36-13.21-33.65-19.61-12.53-7.1-25.21-13.93-38.02-20.44,6.86-10.35,13.84-20.79,20.35-30.53l.77-1.15.19-.29.1-.14.05-.07c.31-.47.44-1.15.35-1.63-.27-2.07-2.54-2.6-3.71-1.38-.08.08-.16.17-.23.26l-.1.14-.05.08s-1.54,2.29-1.54,2.29c-6.76,10.12-13.59,20.2-20.48,30.25-19.92-10-40.18-19.23-60.76-27.52ZM656.76,490.96c22.59,10.17,45.44,20.04,68.22,29.74-8.93,17.89-18.35,35.45-28.14,52.77-1.49-.7-2.96-1.4-4.42-2.09-21.11-10.04-43.41-21.24-65.62-32.37,10.11-15.93,20.08-31.96,29.96-48.05ZM758.28,790.88c-4.33,7.16-8.66,14.31-12.9,21.27-6.54,10.66-13.16,21.27-19.81,31.86-1.63-.77-3.25-1.55-4.87-2.33,0,0,0,0,0,0,.37-.91.51-1.3-.03-.01l-.16-.08-.32-.16s-.64-.31-.64-.31c-7.99-3.89-16.44-8.17-24.33-12.3-13.49-7.06-26.94-14.53-40.24-22.18,11.46-15.93,22.69-32.06,33.5-48.51,1.44.73,2.87,1.45,4.31,2.17,21.48,10.82,43.44,21.17,65.5,30.59ZM527.01,683.17c3.03-3.94,6.05-7.89,9.04-11.86,24,15.07,48.22,29.75,72.75,43.82-9.93,15.24-19.85,30.47-29.69,45.76-25.49-15.71-50.97-31.45-76.79-46.51,8.34-10.31,16.58-20.71,24.69-31.21ZM565.63,828.59c-5.52-4-11.06-7.98-16.61-11.93,2.74-3.7,5.49-7.41,8.06-11.25,7.89-11.89,15.78-23.79,23.65-35.71,21.53,13.2,43.22,26.11,65.17,38.46-12.33,17.09-24.72,34.13-36.86,51.32-14.54-10.18-28.97-20.55-43.41-30.89ZM649.35,803.38c-3.14-1.82-6.27-3.66-9.38-5.49-18.63-11.02-37.12-22.35-55.58-33.73,10.04-15.23,20.04-30.5,29.96-45.84,14.36,8.18,28.83,16.14,43.41,23.86,8.34,4.43,16.9,8.9,25.41,13.25-11.04,16.16-22.39,32.09-33.82,47.95ZM612.3,709.76c-24.25-14.29-48.31-28.96-72.4-43.57,14.49-19.38,28.53-39.14,42.21-59.17,23.16,13.71,46.58,27.51,70.02,40.83-13.09,20.77-26.45,41.35-39.84,61.91ZM651.57,811.34c22.1,12.31,44.48,24.03,67.23,34.85-.03.09-.03.08,0,0,1.38.66,2.76,1.31,4.14,1.96-8.39,13.31-16.82,26.59-25.21,39.9-4.29,6.81-8.59,13.74-12.94,20.66-4.2-2.47-8.38-4.98-12.54-7.52-6.44-3.91-13.46-8.34-19.82-12.41-13.12-8.45-26.06-17.22-38.91-26.16,12.79-16.99,25.54-34.03,38.03-51.29ZM585.87,601.5c12.75-18.8,25.21-37.84,37.46-57.04,23.54,11.45,47.16,22.7,70.94,33.53-12.57,22.03-25.71,43.69-39.16,65.13-23.18-13.67-46.13-27.79-69.24-41.62ZM505.84,562.65c13.09,7.26,26.23,14.86,39.04,22.35,10.51,6.2,21.11,12.48,31.76,18.78-13.77,19.93-27.78,39.67-42.05,59.19-16.98-10.28-33.99-20.51-51.11-30.52-5.7-3.35-11.55-6.78-17.48-10.24,9.72-13.59,19.03-27.73,28.09-41.67,3.77-5.78,7.72-11.8,11.75-17.89ZM707.07,677.95c6.15,3.21,12.55,6.47,18.89,9.6-4.6,8.08-9.33,16.07-14.17,23.95-8.26,13.42-16.87,26.59-25.69,39.61-23.07-12.1-45.78-24.93-68.31-38.13,13.29-20.63,26.42-41.4,39.25-62.36,16.7,9.44,33.4,18.61,50.03,27.32Z"/>
  </g>
  <g>
    <path class="cls-2" d="M717.58,597.48c-.78-.68-3.16-2.63-3.91-3.12-5.74-3.79-13.56-6.02-20.31-7.03-3.82-.57-6.27-.76-10.16-.78-.26,0-.52,0-.78,0-.78,0-1.57-.03-2.34,0-20.88.89-36.92,9.04-53.91,13.28-3.12.78-9.9,1.56-18.36,1.86-3.15.11-10.53-.84-13.67-1.08-29.94-2.3-47.57-15.93-70.31-32.81-.29-.21-4.89-2.39-6.25-3.12-6.35-3.45-17.97-8.14-25-9.37-2.18-.38-14.02-1.97-21.09-.78-.5.08-1.21.18-1.7.25-.16.02-1.45.34-2.2.53-15.05,3.85-30.12,16.41-36.72,30.47-.35.75-1.11,3.43-1.56,4.69-5.39,15.04-1.62,48.04-.78,51.56,3.69,15.55,13.88,37.15,23.44,50,.66.89,1.75,2.42,2.34,3.12,11.56,13.74,35.09,31.76,50.78,40.62,1.62.91,3.49,2.52,4.69,3.12,18.62,9.36,47.2,17.06,67.97,17.97,5.91.26,12.83.26,18.75,0,5.01-.22,9.89-.91,14.84-1.56,2.62-.35,5.99-.28,8.59-.78,18.54-3.58,44.52-15.16,60.15-25.78,1.57-1.07,3.97-2.77,5.47-3.91,15.54-11.81,28.25-29.52,38.28-45.31.16-.26,1.76-4.23,2.34-5.47.73-1.54,1.72-3.87,2.34-5.47,1-2.58,2.44-6.74,3.12-9.37,5.53-21.35,3.24-46.43-14.06-61.72Z"/>
    <path class="cls-4" d="M721.08,654.5c-1.32,4.89-3.18,8.18-5.07,12.51-.25.57-.54,1.04-.78,1.56-44.94,97.02-183.14,99.29-249.19,22.24-11.62-13.55-29.71-47.05-29.71-64.82v-16.8c8.53,9.77,18.12,18.08,28.66,25.64,22.59,16.19,64.56,29.73,66.88,28.71.67-.29.92-.63,1.09-1.51.15-.73-.26-1.46-.97-1.72-8.68-3.17-17.3-6.65-25.64-10.61-3.17-1.51-23.36-12.2-25.38-13.32-3.22-1.78-19.95-13.8-26.27-19.41-5.96-5.28-10.72-11.69-16.44-17.19-1.39-3.02,4.31-13.43,6.31-16.37.5-.73,4.01-5.46,7.78-8.59,38.37-31.92,77.07,16.81,111.68,30.47,20.07,7.92,41.58,8.67,62.9,7.02,0,0-.55,50.77-.78,59.37-6.03,1.05-12.84,1.32-19.55,1.35-1.11,0-10.81-.39-13.9-.53-.58-.03-1.12.27-1.41.78,0,.01-.02.02-.02.04-1.11,2.64,2.02,3.33,3.23,3.48,27.41,3.45,46.06,1.21,62.36-.96,22.42-3.44,33.7-7.33,53.4-18.88,2.99-1.75,8.87-7.12,10.81-7.94,2.36-1,.12,4.93-.02,5.45Z"/>
    <path class="cls-4" d="M722.88,637.95c-13.55,8.54-26.88,18.61-42.8,22.02,2.92-20.4,3.44-41.08,3.12-61.72,23.78-1.13,40.88,15.72,39.68,39.69Z"/>
  </g>
  <path class="cls-6" d="M633.31,610.08c14.98-3.06,28.72-12.14,44.43-11.83l-4.25,64.89c-1.52,2.25-39.19,8.45-41.88,6.63l1.71-59.7Z"/>
  <g>
    <path class="cls-4" d="M532.49,286.25c-.04-.87-.6-1.64-1.42-1.95-5.25-1.94-17.64-2.44-25.21-.55-14.86,3.7-38.86,16.81-45.13,31.43-2.99,6.98-1.15,12.82,6.08,6.86,6.94-5.71,19.68-16.88,22.03-18.43,5.35-3.52,9.19-5.54,15.38-7.72.05-.02,22.59-6.63,27.37-8.3.57-.2.93-.74.9-1.34Z"/>
    <path class="cls-4" d="M539.45,474.77c-.13-.18-.64-.7-.78-.78-2.91.44-4.55,3.92-5.87,6.24-6.25,10.97-11.22,29.55-3.5,40.64,1.16,1.66,1.8,1.15,2.34,1.56h2.34c.72-1.01.94-.4,1.56-2.34-2.78-11.42-4.05-23.58,1.56-34.37.04-.25-.04-.53,0-.78.2-1.36.49-2.93,1.56-3.91.04-.25-.02-.52,0-.78.07-.85-.27-1.94.78-2.34.03-.52,0-1.04,0-1.56v-1.56Z"/>
    <path class="cls-4" d="M744.92,487.66v-17.97c0-3.5,1.63-4.07.78-9.77-3.97-.35-5.94,7.9-6.65,10.93-1.65,7.03-3.82,24.46,5.87,25.79,4.76-2.35,0-6.86,0-8.98Z"/>
    <path class="cls-4" d="M450.39,337.27c-4.25-.17-4.64,4.96-4.69,5.47-.46,4.46.89,7.27,5.47,5.47,2.03-.8,2.67-2.28,2.99-3.24.26-.77,1.64-6.53-3.77-7.69Z"/>
    <path class="cls-4" d="M420.05,406.91c-.46.04-.87.31-1.08.73-4.96,10.19-19.39,20.91-17,33.12.36,1.82,1.44,2.68,3.14,2.76.46.02.89-.21,1.14-.59,3.83-5.85,14.63-26.45,15.23-31.45.13-1.05.02-2.2-.02-3.32-.02-.75-.67-1.32-1.42-1.26Z"/>
    <path class="cls-4" d="M486.57,412.98c-.94-.41-2.08-.75-2.98.46-.53.71-1.96,5.37-1.96,11.44,0,3.28,2.31,8.49,5.69,4.91.38-.4.59-.95.59-1.5v-13.27c0-.88-.52-1.68-1.33-2.03Z"/>
    <path class="cls-4" d="M639.45,621.64c-2.21,6.27-3.6,23.45-.85,29.37.54,1.16.89,1.7,1.66,1.88.88.2,1.77-.28,2.17-1.08.76-1.49,1.47-3.56,1.64-4.84.68-5.14,1.36-16.79.84-21.79-.47-4.53-3.32-9.57-5.46-3.53Z"/>
    <path class="cls-4" d="M641.8,658.36c-.26-.08-1.32-.08-1.56,0-1.88.59-2.13,3.28-1.18,4.73.27.42.84.53,1.3.6.6.08,1.22-.1,1.66-.52.62-.61.98-1.45,1.19-2.32.13-.55.03-1.13-.29-1.6-.24-.35-.58-.74-1.1-.89Z"/>
  </g>
  <g>
    <path class="cls-2" d="M416.12,760.46c-5.44-24.99-8.82-54.93-10.26-55.7-.33-.18-.76.04-.77.43-.27,20.07,2.86,40.07,6.49,59.75,3.49,18.88,8.01,39.29,14.58,57.29,2.79,7.65,9.78,26.05,13.92,32.17.68,1,.88,2.13,2.49,1.8,1.6-1.88-7.1-22.8-12.5-41.4-7.09-20.97-12.16-46.05-13.97-54.34Z"/>
    <path class="cls-2" d="M449.83,875.17c-.71-.66-1.86-.16-1.86.81,0,.52.02,1.01.09,1.32.93,4.62,8.13,16.09,12.07,18.79,5.72,3.91.66-4.17.01-5.51-.32-.66-6.56-11.96-10.31-15.41Z"/>
    <path class="cls-2" d="M610.95,768.72c-7.03.78-22.9,1.84-33.37,2.5-7.69.49-15.42.09-23.02-1.17-1.17-.19-2.31-.38-3.39-.56-5.3-.85-9.67-1.85-14.84-3.12-14.83-3.65-28.94-9-41.41-17.97-1.72-1.24-3.16-2.73-4.69-3.91-1.07-.83-4-4.12-5.46-3.12-1.57,1.08-.93,3.21,1.56,6.25,13.12,16.02,49.94,28.94,72.65,31.25,5.19.53,9.66.78,14.84.78,7.92,0,44.42-4.06,47.3-8.56,2.89-4.53-8.03-2.6-10.18-2.36Z"/>
    <path class="cls-2" d="M852.16,364.45c-.08-1.46-1.06-5.8-3.33-5.3-.6.11-1.13.71-1.18,1.31-.37,4.33.45,7.75.43,11.54-.04,8.24-1.12,17.38-2.76,25.44-1.08,5.3-3.92,11.71-4.3,16.82-.17,2.32.15,2.33,1.83,2.23.3-.02.6-.18.83-.38.21-.17.4-.55.46-.71,6.83-16.61,9.08-32.4,8.02-50.95Z"/>
    <path class="cls-2" d="M527.63,352.49c4.69-1.11,8.2-3.49,13.73-2.67,4.05.6,9.41,5.28,11.72,8.59,2.13,3.06,2.58,6.18,4.5,9.69.82,1.51,3.11.85,3.01-.86-.8-14.18-12.65-25.9-27.81-21.41-.81.24-6.3,1.86-7.09,4.76-.31,1.15.78,2.18,1.94,1.91Z"/>
    <path class="cls-2" d="M551.18,537.26c2.33,2.32,11.14-8.31,12.51-10.52,4.36-7,6.85-16.12,5.75-24.4-.14-1.05-1.17-1.75-2.2-1.46-.02,0-.03,0-.05.01-.7.2-1.2.81-1.26,1.53-.66,7.76-3.45,15.68-7.41,22.28-1.26,2.1-9.07,10.86-7.36,12.56Z"/>
    <path class="cls-2" d="M691.36,380.98c-9.02,3.67-16.82,10.43-26.86,4.03-1.06-.67-2.46-.13-2.82,1.07,0,0-.27.99.59,2.1.24.31.7.73,1.02.94,8.85,5.96,19.73,3.47,27.66-3.07,3.05-2.51,7.16-7.8.41-5.05Z"/>
    <path class="cls-2" d="M763.67,485.07c-1.16,1.21-2.24,5.68-3.34,7.32-1.95,2.9-6.5,4.15-6.82,6.99-.26,2.31,1.83,2.26,3.82,1.41,3.99-1.7,9.47-12.42,8.59-15.33-.27-.9-1.71-.95-2.26-.38Z"/>
    <path class="cls-2" d="M833.92,432.67c-1.67,3.06-2.13,7.85-.72,8.5,1.79.83,4.06-3.43,4.83-6.97.54-2.5-2.89-3.78-4.12-1.53Z"/>
    <path class="cls-2" d="M569.53,492c3.24-.31,2.85-9.01-.75-7.83-1.53.5-3.97,8.29.75,7.83Z"/>
    <path class="cls-2" d="M785.64,546.17c-2.67,9.38-10.36,38.96-10.45,39.36-3.29,15.66-4.68,22.05-6.14,34.36-1.94,16.36-3.83,60.26-2.7,71.25.07.67.39,1.29,1.01,1.54.78.32,1.64-.21,1.7-1.05.98-15.17,1.19-43.11,4.55-68.02,4.11-30.51,6.46-40.4,14.09-70.11.53-2.08,1.61-4.91,1.28-7.13-.27-1.8-2.83-1.95-3.33-.2Z"/>
    <path class="cls-2" d="M816.62,371.18c-11.39,3.54-24.33,4.67-36.01,1.73-1.14-.29-1.87-1.9-.55-2.67,1.03-.6,7.6.17,13.06-.26,8.8-.68,13.99-2.83,21.9-5.22,9.8-2.97,20.6-11.91,23.98-15.37,1.2-1.24,5.71-1.98,4.05,2.62-2.9,8.04-18.52,16.71-26.43,19.17Z"/>
  </g>
</svg>