<?xml version="1.0" encoding="UTF-8"?>
<svg id="Capa_1" data-name="Capa 1" xmlns="http://www.w3.org/2000/svg" viewBox="0 0 1244.96 1246.23">
  <defs>
    <style>
      .cls-1 {
        fill: #fff;
      }
    </style>
  </defs>
  <polygon class="cls-1" points="387.85 567.43 341.73 596.04 302.66 686.32 293.69 746.72 317.35 795.48 346.12 803.06 377.97 795.48 397.15 779.09 411.19 764.7 423.17 771.21 442.35 772.58 455.02 753.75 465.3 729.09 468.72 745.18 495.44 757.51 510.16 749.98 531.4 757.85 548.86 749.98 559.14 732.92 570.09 746.21 589.51 747.92 604 742.1 625.23 749.29 635.86 743.81 648.52 718.81 662.9 731.48 694.79 734.57 697.49 744.16 684.14 767.1 697.49 791.42 733.57 795.48 754.8 759.57 780.03 703.06 797.84 686.32 805.72 711.28 849.59 725.32 870.1 722.92 884.83 704.09 900.58 728.74 921.47 745.53 946.13 734.91 933.46 719.84 948.53 615.44 908.46 585.59 887.91 569.15 870.1 577.16 862.57 592.1 862.22 600.66 843.04 596.21 824.55 604.09 812.22 617.1 788.25 658.88 790.3 622.46 769.41 613.33 741.22 618.81 719.91 632.08 692.01 688.33 702.29 647.24 684.82 636.28 662.9 636.62 657.08 649.63 653.32 635.59 632.08 632.08 615.99 649.63 604 639.49 579.14 642.78 571.46 651.35 552.63 647.58 518.38 673.95 503.65 658.54 486.19 653.74 502.28 618.13 509.13 605.8 486.53 587.65 468.72 594.15 446.8 632.08 423.17 686.32 429.34 619.5 423.17 585.25 387.85 567.43"/>
  <path d="M943.54,597.03c-7.51-6.42-17.3-11.82-29.12-16.07-5.7-2.33-7.34-3.53-7.39-3.57-1.03-.81-1.96-1.76-2.84-2.9-1.3-1.79-2.82-3.62-4.63-5.58-.09-.1-.18-.19-.27-.29-6.73-6.91-16.75-8.28-25.46-3.53-4.77,2.57-8.99,6.4-12.54,11.4-3,4.22-5.08,8.59-6.2,12.96-1.73-.55-3.41-1.01-5.04-1.36-4.16-.9-10.06-1.19-16.7,1.44l-.02-34.69,28.42-.02-.03-41.17-28.42.02-.02-36.72,29.02-.02-.03-41.15-76.4.05.11,171.48c-1.14-.37-2.29-.71-3.49-.97-1.05-.22-2.16-.39-3.31-.53l-.11-169.97-60.72.04-5.84,124.96h-3.25s-6.01-124.95-6.01-124.95l-61,.04.12,191.11c-1.94-.2-3.86-.2-5.75-.03-.12,0-.24.02-.36.03l-16.51-191.39-73.74.05-18.52,207.6h10.88c-1.74,1.19-3.51,2.6-5.3,4.29-.19.18-.38.37-.56.56-4.37,4.57-8.47,9.86-12.25,15.76-1.27-1.93-2.85-3.73-4.72-5.37-4.93-4.33-10.86-7.18-17.7-8.47-1.67-.3-3.31-.48-4.93-.53,1.11-2.17,2.2-4.23,3.29-6.22l26.83-.02-.07-114.6-55.97.04.02,30.78h8.6s.01,23.25.01,23.25c-4.16,1.31-7.97,3.67-11.22,7.02-.36.38-.71.77-1.04,1.18-.55.69-1.1,1.42-1.65,2.16l-.07-109.11c0-3.75.68-6.37,2.06-7.85,1.38-1.48,3.05-2.22,5.03-2.22,1.78,0,3.35.73,4.74,2.21,1.38,1.48,2.09,4.1,2.09,7.85l.02,36.72,47.37-.03-.02-33.47c-.01-17.77-4.9-31.23-14.68-40.41-9.77-9.18-23.26-13.75-40.43-13.74-16.98.01-30.16,4.5-39.53,13.49-9.38,8.99-14.05,22.58-14.04,40.73l.05,81.08c-2.85-1.69-5.97-3-9.32-3.87-.31-.08-.63-.15-.95-.22-17.68-3.45-34.3.5-49.39,11.73-13.18,9.8-24.86,23.58-34.73,40.97-9.4,16.57-16.98,34.91-22.55,54.53-5.53,19.59-8.71,38.86-9.45,57.33-.53,14.13.62,27.15,3.42,38.68,3.13,12.88,8.64,23.48,16.41,31.53,8.66,8.92,20.36,13.79,33.84,14.09.12,0,.24,0,.36,0h.09c18.27-.11,35.48-6.11,51.15-17.81,7.05-5.26,13.87-11.44,20.43-18.53,1.23.83,2.61,1.62,4.16,2.34,5.27,2.46,10.9,3.74,16.73,3.82,13.9.2,19.61-8.39,21.4-12.08.22-.46.42-.93.6-1.41,1.79-4.86,4.3-10.69,7.48-17.42,2.58,2.9,5.96,5.36,10.09,7.33,5.31,2.57,11.1,4.09,17.22,4.52,7.39.52,13.99-.89,19.62-4.22.28-.17.55-.34.82-.52,5.34,3.14,11.14,5.14,17.25,5.95,11.53,1.55,18.66-2.59,22.62-6.33.47-.44.91-.91,1.32-1.41,2.38-2.87,4.65-5.78,6.82-8.72,2.27,2.08,5.05,4.08,8.46,5.87,9.62,5.05,20.28,5.08,30.02.08.49-.25.96-.52,1.42-.82,1.36-.89,2.7-1.85,4.02-2.88,1.16.76,2.45,1.48,3.88,2.15,5.22,2.42,10.82,3.7,16.69,3.81,13.88.21,19.56-8.32,21.36-11.99.24-.49.46-1,.65-1.52,1.35-3.66,3.08-7.83,5.18-12.48,2.71,3.6,6.53,6.59,11.39,8.91,5.3,2.56,11.07,4.08,17.15,4.53,2.58.19,5.08.13,7.47-.16-2.81,4.19-5.25,8.34-7.33,12.43-.13.25-.25.5-.36.76-7.44,16.81-.91,28.01,3.64,33.19,5.77,6.57,13.15,11.08,21.98,13.42,9.08,2.37,16.53,2.36,22.78-.04.45-.17.89-.36,1.31-.57,8.72-4.28,16.73-12.4,24.49-24.82,6.47-10.35,12.57-22.04,18.15-34.74,5.45-12.42,10-23.87,13.53-34.02.15-.43.34-.72.68-1.06.06-.06.12-.12.18-.18,1.99-2.06,4.07-4.12,6.21-6.16,2.69,5.99,7.59,12.78,16.47,18.64,8.2,5.4,17.47,9.35,27.56,11.72,11.62,2.74,21.71,2.36,30-1.13.32-.14.64-.28.96-.44l1.14-.56c.44-.21.87-.44,1.28-.69,1.82-1.02,3.54-2.22,5.13-3.56.86-.72,1.62-1.53,2.3-2.41,3.17-3.4,6.2-7.19,9.08-11.39.65,14.26,6.96,23.08,12.47,28.11,7.86,7.19,16.43,11.37,25.42,12.39,12.59,1.47,22.78-3.76,27.29-13.98,2.2-4.97,1.68-10.72-1.36-15.22-1.94-2.87-4.73-4.97-7.9-6.07-.36-5.83.26-13.14,1.87-21.78,1.99-10.8,4.32-21.53,6.9-31.88,0-.01,0-.03.01-.04,2.96-11.98,4.77-20.93,5.53-27.36.03-.27.06-.53.07-.8,1.16-17.17-3.35-30.25-13.43-38.88ZM737.65,519.07h3.27s-3.86,91.3-3.86,91.3c-2.76,1.02-5.68,2.54-8.73,4.73l9.33-96.04ZM683.46,519.1l11.37,112.76c-2.92-1.43-6.05-2.51-9.38-3.22-.07-.02-.14-.02-.22-.04l-5.04-109.5h3.27ZM581.01,517.69h2.95s1.81,37.32,1.81,37.32h-6.82s2.06-37.32,2.06-37.32ZM577.21,596.18h10.65s1.68,33.08,1.68,33.08c-5.5.32-10.45,2.39-14.29,6.02l1.95-39.1ZM940.63,633.81c-.68,5.72-2.41,14.2-5.18,25.44-2.66,10.64-5.04,21.59-7.11,32.84-2.09,11.27-2.7,20.72-1.87,28.39.84,7.65,4.27,11.38,10.34,11.18-1.66,3.77-5.33,5.34-11.01,4.67-5.67-.65-11.2-3.43-16.59-8.36-5.39-4.91-7.84-11.98-7.33-21.18,1.69-12.42,4.73-26.47,9.09-42.16,2.59-9.69,4.54-17.77,5.83-24.24,1.74-8.65,1.69-15.67-.2-21.03-1.89-5.37-7.01-9.08-15.34-11.11,1.11,14-2.1,32.27-9.65,54.79s-16.58,39.21-27.09,50.05v.13c-.93.78-1.9,1.43-2.87,1.97-.08,0-.17.07-.25.15-.48.23-.93.45-1.33.65-5.17,2.17-11.93,2.27-20.27.31-8.33-1.96-15.82-5.14-22.49-9.54-6.65-4.4-10.71-9.74-12.13-16.01-1-6.92-1.34-13.7-.96-20.33-11.06,8.39-20.94,17.08-29.63,26.07-2.02,2.02-3.48,4.35-4.41,7.02-3.43,9.85-7.79,20.81-13.08,32.88-5.29,12.05-10.99,22.96-17.08,32.71-6.09,9.75-12.11,16.09-18.06,19.01-3.05,1.17-7.42,1-13.15-.49-5.72-1.51-10.42-4.36-14.11-8.56-3.69-4.2-4.04-9.65-1.06-16.38,4.26-8.4,10.32-17.07,18.17-26.03,7.84-8.94,15.36-17.04,22.57-24.3,8.61-8.59,13.66-14.34,15.16-17.23,1.33-3.65,2.63-7.65,3.89-12.04,1.25-4.35,2.33-8.39,3.23-12.07-4.03,6.49-9.01,13.71-14.95,21.64-5.93,7.94-11.72,14.34-17.39,19.2-2.48,1.72-5.78,2.2-9.92,1.49-3.3-.58-6.35-1.7-9.14-3.38-4.73,6.82-9.46,11.99-14.19,15.49-2.92,1.67-6.42,2.35-10.52,2.06-4.1-.3-7.9-1.3-11.42-2.99-3.52-1.68-5.74-3.68-6.65-5.98-1.15-3.73-1.44-8.8-.88-15.2.58-6.38,1.41-12.57,2.5-18.55,1.1-5.97,1.94-10.18,2.54-12.65.05-.27.12-.48.18-.65-6.51,7.34-13.31,17.86-20.41,31.51-7.09,13.67-12.27,24.94-15.55,33.84-1.07,2.17-3.38,3.22-6.98,3.17-3.6-.06-7.03-.85-10.27-2.34-3.23-1.51-4.79-3.33-4.67-5.48.73-4.9,1.81-10.97,3.27-18.22-1.48,2.45-3,4.84-4.55,7.17-5.56,8.37-11.29,14.49-17.22,18.36-5.2,2.67-10.37,2.67-15.47,0-5.12-2.68-8.29-6.13-9.49-10.38-.47-2.77-.47-6.47,0-11.1.46-4.62,1.08-8.95,1.86-12.97-2.36,3.5-5.01,7.75-7.91,12.76-5.23,9.8-11.65,19.27-19.25,28.46-2.12,2-5.33,2.74-9.67,2.16-4.35-.58-8.39-2.04-12.14-4.39-3.75-2.35-5.77-5.18-6.02-8.5v-.27c-3.5,4.29-6.85,7.54-10.06,9.79-2.82,1.67-6.3,2.35-10.43,2.06-4.15-.3-7.97-1.29-11.49-2.99-3.52-1.68-5.74-3.68-6.65-5.98-1.39-5.17-1.31-12.02.24-20.57,1.54-8.55,3.04-15.42,4.47-20.62.43-1.58.7-2.72.8-3.42-6.58,7.44-13.76,18.61-21.5,33.5-7.74,14.87-13.27,26.86-16.61,35.93-1.05,2.17-3.38,3.22-6.98,3.17-3.6-.05-7.02-.83-10.27-2.34-3.23-1.5-4.79-3.36-4.69-5.6,1.03-6.17,2.71-13.97,5.05-23.44-1.57,2.48-3.15,4.9-4.75,7.29-11.22,16.71-23.33,29.9-36.33,39.59-12.98,9.69-26.93,14.58-41.81,14.68-9.43-.21-17.05-3.32-22.86-9.3-5.79-6-9.93-14.08-12.4-24.26-2.47-10.18-3.46-21.65-2.99-34.37.69-17.27,3.64-35.14,8.87-53.62,5.24-18.47,12.26-35.48,21.08-51.03,8.82-15.56,18.97-27.58,30.41-36.09,11.43-8.51,23.74-11.48,36.95-8.91,5.95,1.55,10.39,5.33,13.31,11.34,1,2.05,1.82,4.38,2.45,6.98,1.57,6.37,2.39,13.5,2.46,21.38.03,2.4,0,4.88-.13,7.43-.1,2.38-.26,4.82-.5,7.32-1.31,13.97-3.73,27.75-7.32,41.41-3.59,13.64-7.47,25.07-11.65,34.33-.95,1.63-2.85,2.55-5.7,2.7-2.85.17-5.78-.33-8.82-1.51-3.03-1.18-5.27-2.9-6.7-5.15-1.43-2.25-1.24-4.97.58-8.15,1.83-2.93,4.08-8.17,6.77-15.72,2.68-7.55,5.27-16.15,7.78-25.79,2.51-9.64,4.34-18.94,5.5-27.92.45-3.43.71-6.65.81-9.62.15-4.8-.17-9.02-.94-12.63-1.24-5.87-4.27-8.8-9.06-8.83-4.78.5-9.83,4.14-15.14,10.89l-.02-.02-.1.17c-.67.87-1.37,1.78-2.05,2.77-4.41,6.22-8.71,13.74-12.87,22.53-1.61,3.4-3.21,6.99-4.79,10.77-5.66,13.55-10.47,27.89-14.41,43.03-3.96,15.14-6.46,29.42-7.56,42.89-1.07,13.47-.08,24.43,2.97,32.88,2.67,7.38,7.36,11.65,14.06,12.77.97.15,1.98.25,3.03.28,8.95-.34,17.91-4.01,26.89-11.02,5.55-4.32,10.88-9.27,16.04-14.89,3.21-3.49,6.36-7.24,9.43-11.24,7.99-10.42,15.02-20.86,21.08-31.33,6.06-10.47,10.59-19.34,13.6-26.58.27-.53.53-1.03.82-1.5l-.23.88c.1-.35.22-.72.35-1.07-.02-.02,0-.02.02-.03,3.66-11.24,7.59-22.37,11.8-33.43.02-.03.02-.05.03-.08,8-21.04,15.64-36.11,22.91-45.27,2.86-2.95,6.43-4,10.72-3.16,4.28.83,7.89,2.6,10.82,5.29,2.94,2.68,3.75,5.3,2.49,7.83-2.43,1.57-6.06,6.22-10.91,13.91-.75,1.2-1.53,2.48-2.35,3.83-6.01,9.99-12.25,22.54-18.68,37.63-6.44,15.09-11.68,31.11-15.75,48.05,4.68-8.62,9.91-17.36,15.7-26.21,5.81-8.87,11.41-15.64,16.84-20.31,2.95-2.1,6.4-2.77,10.38-2.04,3.97.75,7.34,2.35,10.12,4.79s3.77,5.26,2.99,8.42c-.92,2.75-2.03,6-3.34,9.72-2.73,7.57-5.32,15.6-7.77,24.12-2.46,8.52-3.51,15.65-3.17,21.44,7.28-4.85,14.04-12.54,20.27-23.03,2.06-3.48,4.05-7.04,5.94-10.69,3.85-7.34,7.36-14.99,10.52-22.99.08-.15.18-.32.28-.47,3.98-6.94,8.34-12.89,13.09-17.86,4.68-4.44,9.18-6.27,13.48-5.53,4.32.76,8.8,2.48,13.45,5.16,1.62.87,3.33,1.75,5.15,2.68,1.86-2.6,3.73-5.27,5.58-8.04,1.25-2,2.58-4.04,4-6.05,1.75-2.07,4.45-2.74,8.07-2.01,3.63.75,6.82,2.28,9.54,4.59,2.72,2.33,3.62,4.83,2.7,7.5-9.09,20.54-14.54,36.13-16.39,46.76-1.86,10.63-1.46,15.85,1.18,15.67,6.65-1.12,18.25-19.86,34.85-56.26.17-.2.37-.38.58-.53,1.83-5.42,3.79-10.77,5.91-16.05.83-1.82,2.06-3.07,3.68-3.72h1.93s-.03-.47-.03-.47c1.55-.2,3.13-.12,4.77.21v.25s1.07,0,1.07,0c.58.15,1.17.33,1.75.55,2.67,1.02,4.85,2.3,6.55,3.88,1.72,1.58,2.39,3.07,2.02,4.48-2.7,7.12-5.44,13.95-8.27,20.51-3.18,7.34-5.03,12.2-5.56,14.57,4.69-8.45,9.86-16.41,15.5-23.89,5.65-7.47,11.19-13.37,16.64-17.71,2.82-1.84,6.18-2.34,10.12-1.51,3.93.83,7.32,2.46,10.14,4.86,2.82,2.4,3.9,5.01,3.26,7.82-.52,1.68-1.08,3.58-1.73,5.7-2.6,7.97-5.22,17-7.9,27.07-2.68,10.09-3.86,18.4-3.52,24.95,5.68-4.1,11.34-10.17,17.01-18.23v-.02c1.84-11.33,5.89-22.87,12.11-34.59,3.65-6.87,7.53-13.04,11.62-18.49l2.76-3.54c3.06-3.75,6.26-7.12,9.56-10.12.25-.22.5-.42.77-.62,4.65-3.74,8.88-5.17,12.71-4.31,4.03.9,8.12,2.76,12.27,5.59.82.52,1.68,1.02,2.58,1.53.38-.55.82-1.33,1.32-2.32.65-1.18,1.28-2.35,1.95-3.48.65-1.13,1.2-1.93,1.67-2.42,1.88-1.65,4.38-2.35,7.48-2.12,1.02.08,2,.22,2.93.41,1.97.43,3.77,1.13,5.42,2.11.61.36,1.07.73,1.38.98.24.24.59.63.92,1.15,1.39,2.13,1.32,4.54.57,10.02-.28,2.04-.64,4.43-1.12,7.08-1.08,6.65-2.42,13.55-4.04,20.67-.96,4.65-1.79,8.7-2.46,12.2,10.61-9.24,19.76-16.65,27.49-22.24.03-.03.08-.05.12-.07.88-3.57,2-7.1,3.33-10.59.43-1.17.9-2.32,1.38-3.47,6.94-16.39,14.8-27.59,23.6-33.65,3.68-2.44,7.32-3.25,10.92-2.47,3.58.78,7.69,2.3,12.27,4.56,1.23.55,2.48,1.1,3.72,1.71.2.08.4.18.6.28,4.13,1.88,6.3,4.61,6.51,8.18.12,2.82-.7,7.53-2.44,14.19-1.75,6.65-4.53,13.29-8.34,19.92-3.8,6.65-8.68,11.36-14.64,14.11-3.03,1.25-5.85,1.85-8.42,1.77-2.58-.06-5.33-.6-8.25-1.58-2.14,12.47-.84,21.47,3.9,27,4.72,5.55,9.67,7.28,14.85,5.21,10.7-5.74,21.84-24.56,33.42-56.51-.02-.08-.02-.17-.03-.25.5-1.85,1.03-4.08,1.61-6.72.58-2.62.93-4.23,1.05-4.85,2.84-15.37-.42-25.42-9.82-30.18-2.25-1.05-3.1-3.01-2.54-5.9.55-2.88,1.9-5.83,4.03-8.84,2.13-3,4.51-5.22,7.15-6.64,2.63-1.44,4.85-1.22,6.67.65,1.45,1.57,2.62,2.98,3.54,4.26,1.68,2.22,3.59,4.18,5.74,5.88,2.15,1.7,5.99,3.68,11.54,5.93,10.22,3.64,18.37,8.09,24.49,13.32,6.1,5.23,8.74,13.83,7.93,25.81Z"/>
  <path d="M706.25,773.79c5.08-4.7,10.01-10.79,14.78-18.23,4.77-7.46,8.95-15.01,12.54-22.64-5.9,6.84-11.84,14.37-17.81,22.57-5.97,8.22-9.15,14.33-9.51,18.29Z"/>
  <path d="M564.49,670.2c-.73-1.34-1.7-2.1-2.91-2.27-1.23-.19-2.67.76-4.34,2.81-6.74,8.82-12.11,18.66-16.16,29.55-4.03,10.89-6,18.55-5.89,22.99,3.79-3.89,8.84-10.65,15.15-20.26,6.31-9.62,11.34-17.87,15.09-24.75.44-.82.57-2.03.41-3.63-.16-1.62-.63-3.08-1.36-4.42Z"/>
  <path d="M753.76,639.75c-.88-.77-2.57.13-5.06,2.7l-.05.05c-6.23,6.69-11.82,14.61-16.72,23.78-4.94,9.17-8.21,16.93-9.79,23.24-.02,1.55.43,2.23,1.36,2.05,2.33-.58,6.38-4.75,12.15-12.52,5.77-7.77,11.54-17.29,17.34-28.58.9-1.96,1.49-4.06,1.75-6.26.07-.63.09-1.2.05-1.7-.05-1.3-.38-2.22-1.03-2.77Z"/>
  <path d="M840.59,649.93c1.61-2.2,2.99-4.59,4.18-7.19.99-2.13,1.84-4.41,2.55-6.83,1.56-5.33,2.31-9.96,2.27-13.9-2.04,2-4.58,5.44-7.63,10.33-2.19,3.5-4.22,6.96-6.06,10.37-.74,1.37-1.44,2.7-2.11,4.05-2.39,4.74-3.57,7.79-3.51,9.16,3.93.03,7.37-1.97,10.3-5.99Z"/>
</svg>